<svg width="43" height="43" viewBox="0 0 43 43" fill="none" xmlns="http://www.w3.org/2000/svg">
<path d="M21.5625 8.71552C19.3456 8.71318 17.1693 9.31046 15.2641 10.4441C15.0984 10.5427 14.9787 10.7031 14.9313 10.89C14.8839 11.0769 14.9127 11.2749 15.0113 11.4406C15.11 11.6062 15.2704 11.7259 15.4572 11.7733C15.6441 11.8207 15.8422 11.7919 16.0078 11.6933C17.478 10.8265 19.1327 10.3202 20.8362 10.216V13.7996C20.8362 13.9922 20.9127 14.1769 21.0489 14.3131C21.1851 14.4493 21.3699 14.5259 21.5625 14.5259H23.0151C23.2077 14.5259 23.3924 14.6024 23.5287 14.7386C23.6649 14.8748 23.7414 15.0595 23.7414 15.2522C23.7414 15.4448 23.6649 15.6295 23.5287 15.7657C23.3924 15.9019 23.2077 15.9784 23.0151 15.9784H21.5625C21.3699 15.9784 21.1851 16.055 21.0489 16.1912C20.9127 16.3274 20.8362 16.5121 20.8362 16.7047V20.3362H17.931V19.6099C17.931 19.032 17.7015 18.4778 17.2929 18.0692C16.8842 17.6606 16.33 17.431 15.7522 17.431C15.1743 17.431 14.6201 17.6606 14.2115 18.0692C13.8028 18.4778 13.5733 19.032 13.5733 19.6099V20.3362L10.716 20.3391C10.8193 18.6347 11.3251 16.979 12.1919 15.5078C12.2812 15.343 12.3034 15.1501 12.2538 14.9693C12.2041 14.7885 12.0865 14.634 11.9256 14.5379C11.7646 14.4419 11.5727 14.4118 11.3901 14.4539C11.2074 14.4961 11.0481 14.6072 10.9455 14.7641C9.29825 17.5365 8.80288 20.844 9.56565 23.9773C10.3284 27.1107 12.2886 29.8204 15.0259 31.5255V32.6832C15.0259 32.8758 15.1024 33.0606 15.2386 33.1968C15.3748 33.333 15.5595 33.4095 15.7522 33.4095H16.4784V34.865H15.7522C15.5595 34.865 15.3748 34.9415 15.2386 35.0777C15.1024 35.2139 15.0259 35.3986 15.0259 35.5913C15.0259 35.7839 15.1024 35.9686 15.2386 36.1048C15.3748 36.241 15.5595 36.3176 15.7522 36.3176H16.4784V38.4964C16.4784 38.6891 16.555 38.8738 16.6912 39.01C16.8274 39.1462 17.0121 39.2227 17.2047 39.2227H18.0037C18.1704 40.0437 18.6157 40.7817 19.2643 41.3118C19.9129 41.8419 20.7248 42.1315 21.5625 42.1315C22.4002 42.1315 23.2121 41.8419 23.8607 41.3118C24.5093 40.7817 24.9546 40.0437 25.1213 39.2227H25.9203C26.1129 39.2227 26.2976 39.1462 26.4338 39.01C26.57 38.8738 26.6466 38.6891 26.6466 38.4964V36.3176H27.3728C27.5655 36.3176 27.7502 36.241 27.8864 36.1048C28.0226 35.9686 28.0991 35.7839 28.0991 35.5913C28.0991 35.3986 28.0226 35.2139 27.8864 35.0777C27.7502 34.9415 27.5655 34.865 27.3728 34.865H26.6466V33.4095H27.3728C27.5655 33.4095 27.7502 33.333 27.8864 33.1968C28.0226 33.0606 28.0991 32.8758 28.0991 32.6832V31.5255C30.374 30.1067 32.1248 27.9857 33.0869 25.4832C34.0489 22.9808 34.1698 20.2331 33.4313 17.6559C32.6927 15.0786 31.1349 12.812 28.9934 11.1989C26.852 9.58587 24.2435 8.7141 21.5625 8.71552ZM21.5625 40.6753C21.1119 40.6749 20.6724 40.5351 20.3044 40.275C19.9364 40.0149 19.6579 39.6474 19.5071 39.2227H23.6179C23.4671 39.6474 23.1886 40.0149 22.8206 40.275C22.4526 40.5351 22.0131 40.6749 21.5625 40.6753ZM25.194 37.7701H17.931V36.3176H25.194V37.7701ZM17.931 34.865V33.4124H25.194V34.865H17.931ZM22.2888 17.431H23.0151C23.593 17.431 24.1472 17.2015 24.5558 16.7929C24.9644 16.3842 25.194 15.83 25.194 15.2522C25.194 14.6743 24.9644 14.1201 24.5558 13.7115C24.1472 13.3028 23.593 13.0733 23.0151 13.0733H22.2888V10.2044C24.9177 10.3826 27.393 11.5076 29.2559 13.3711C31.1189 15.2345 32.2432 17.7101 32.4206 20.3391L28.8254 20.3362C28.6328 20.3362 28.4481 20.4127 28.3119 20.5489C28.1757 20.6851 28.0991 20.8699 28.0991 21.0625V22.5151C28.0991 22.7077 28.0226 22.8924 27.8864 23.0287C27.7502 23.1649 27.5655 23.2414 27.3728 23.2414C27.1802 23.2414 26.9955 23.1649 26.8593 23.0287C26.7231 22.8924 26.6466 22.7077 26.6466 22.5151V21.0625C26.6466 20.8699 26.57 20.6851 26.4338 20.5489C26.2976 20.4127 26.1129 20.3362 25.9203 20.3362H22.2888V17.431ZM10.7175 21.7917L14.2996 21.7888C14.4922 21.7888 14.6769 21.7123 14.8131 21.5761C14.9493 21.4399 15.0259 21.2551 15.0259 21.0625V19.6099C15.0259 19.4173 15.1024 19.2326 15.2386 19.0963C15.3748 18.9601 15.5595 18.8836 15.7522 18.8836C15.9448 18.8836 16.1295 18.9601 16.2657 19.0963C16.4019 19.2326 16.4784 19.4173 16.4784 19.6099V21.0625C16.4784 21.2551 16.555 21.4399 16.6912 21.5761C16.8274 21.7123 17.0121 21.7888 17.2047 21.7888H20.8362V24.694H20.1099C19.532 24.694 18.9778 24.9235 18.5692 25.3321C18.1606 25.7408 17.931 26.295 17.931 26.8728C17.931 27.4507 18.1606 28.0049 18.5692 28.4135C18.9778 28.8222 19.532 29.0517 20.1099 29.0517H20.8362V31.9569H16.4784V31.1144C16.4784 30.9869 16.4449 30.8617 16.3811 30.7513C16.3174 30.6409 16.2257 30.5492 16.1153 30.4854C14.5729 29.5887 13.2741 28.327 12.3329 26.8113C11.3918 25.2955 10.8371 23.5719 10.7175 21.7917ZM27.0097 30.4854C26.8993 30.5492 26.8076 30.6409 26.7439 30.7513C26.6801 30.8617 26.6466 30.9869 26.6466 31.1144V31.9569H22.2888V28.3254C22.2888 28.1328 22.2123 27.9481 22.0761 27.8119C21.9399 27.6757 21.7551 27.5991 21.5625 27.5991H20.1099C19.9173 27.5991 19.7326 27.5226 19.5963 27.3864C19.4601 27.2502 19.3836 27.0655 19.3836 26.8728C19.3836 26.6802 19.4601 26.4955 19.5963 26.3593C19.7326 26.2231 19.9173 26.1466 20.1099 26.1466H21.5625C21.7551 26.1466 21.9399 26.07 22.0761 25.9338C22.2123 25.7976 22.2888 25.6129 22.2888 25.4203V21.7888H25.194V22.5151C25.194 23.093 25.4235 23.6472 25.8321 24.0558C26.2408 24.4644 26.795 24.694 27.3728 24.694C27.9507 24.694 28.5049 24.4644 28.9135 24.0558C29.3222 23.6472 29.5517 23.093 29.5517 22.5151V21.7888L32.4075 21.7917C32.2879 23.5719 31.7332 25.2955 30.7921 26.8113C29.8509 28.327 28.5521 29.5887 27.0097 30.4854ZM6.31034 21.0625C6.31034 20.8699 6.23382 20.6851 6.09762 20.5489C5.96141 20.4127 5.77668 20.3362 5.58405 20.3362H1.22629C1.03367 20.3362 0.848933 20.4127 0.712726 20.5489C0.57652 20.6851 0.5 20.8699 0.5 21.0625C0.5 21.2551 0.57652 21.4399 0.712726 21.5761C0.848933 21.7123 1.03367 21.7888 1.22629 21.7888H5.58405C5.77668 21.7888 5.96141 21.7123 6.09762 21.5761C6.23382 21.4399 6.31034 21.2551 6.31034 21.0625ZM8.08831 12.4443L4.31304 10.2654C4.23041 10.217 4.13901 10.1854 4.04411 10.1724C3.94921 10.1594 3.85268 10.1653 3.76008 10.1898C3.66748 10.2143 3.58063 10.2569 3.50454 10.315C3.42846 10.3732 3.36463 10.4459 3.31674 10.5288C3.26884 10.6118 3.23783 10.7034 3.22549 10.7984C3.21314 10.8934 3.2197 10.9898 3.2448 11.0823C3.2699 11.1747 3.31303 11.2613 3.37171 11.337C3.4304 11.4127 3.50348 11.476 3.58675 11.5234L7.36202 13.7022C7.52874 13.797 7.7262 13.822 7.91129 13.7718C8.09638 13.7215 8.25408 13.6001 8.34998 13.434C8.44587 13.2679 8.47218 13.0706 8.42316 12.8852C8.37414 12.6998 8.25376 12.5413 8.08831 12.4443ZM12.9443 7.58831C12.9916 7.67158 13.055 7.74466 13.1307 7.80334C13.2064 7.86203 13.293 7.90516 13.3854 7.93026C13.4778 7.95535 13.5743 7.96192 13.6693 7.94957C13.7643 7.93722 13.8559 7.90621 13.9388 7.85832C14.0218 7.81043 14.0944 7.7466 14.1526 7.67051C14.2108 7.59442 14.2534 7.50758 14.2779 7.41498C14.3023 7.32238 14.3083 7.22585 14.2953 7.13094C14.2823 7.03604 14.2507 6.94465 14.2022 6.86202L12.0234 3.08675C11.9264 2.92129 11.7679 2.80092 11.5824 2.7519C11.397 2.70288 11.1997 2.72918 11.0337 2.82508C10.8676 2.92098 10.7461 3.07868 10.6959 3.26377C10.6456 3.44886 10.6706 3.64631 10.7654 3.81304L12.9443 7.58831ZM21.5625 5.81034C21.7551 5.81034 21.9399 5.73382 22.0761 5.59762C22.2123 5.46141 22.2888 5.27668 22.2888 5.08405V0.726293C22.2888 0.533668 22.2123 0.348933 22.0761 0.212726C21.9399 0.0765199 21.7551 0 21.5625 0C21.3699 0 21.1851 0.0765199 21.0489 0.212726C20.9127 0.348933 20.8362 0.533668 20.8362 0.726293V5.08405C20.8362 5.27668 20.9127 5.46141 21.0489 5.59762C21.1851 5.73382 21.3699 5.81034 21.5625 5.81034ZM29.1886 7.85413C29.3554 7.95044 29.5536 7.97654 29.7397 7.92669C29.9257 7.87684 30.0844 7.75512 30.1807 7.58831L32.3596 3.81304C32.4544 3.64631 32.4794 3.44886 32.4291 3.26377C32.3789 3.07868 32.2574 2.92098 32.0913 2.82508C31.9253 2.72918 31.728 2.70288 31.5426 2.7519C31.3571 2.80092 31.1986 2.92129 31.1016 3.08675L28.9228 6.86202C28.8264 7.02883 28.8003 7.22707 28.8502 7.41313C28.9 7.59918 29.0218 7.75782 29.1886 7.85413ZM35.4013 13.7996C35.5288 13.7998 35.6541 13.7662 35.7644 13.7022L39.5383 11.5234C39.7037 11.4264 39.8241 11.2679 39.8731 11.0824C39.9221 10.897 39.8958 10.6997 39.7999 10.5337C39.704 10.3676 39.5463 10.2461 39.3612 10.1959C39.1761 10.1456 38.9787 10.1706 38.812 10.2654L35.0367 12.4443C34.8982 12.5243 34.79 12.6476 34.7289 12.7954C34.6677 12.9431 34.6569 13.1068 34.6983 13.2613C34.7397 13.4157 34.8309 13.5521 34.9577 13.6495C35.0846 13.7468 35.24 13.7996 35.3998 13.7996H35.4013ZM41.8987 20.3362H37.5409C37.3483 20.3362 37.1636 20.4127 37.0274 20.5489C36.8912 20.6851 36.8147 20.8699 36.8147 21.0625C36.8147 21.2551 36.8912 21.4399 37.0274 21.5761C37.1636 21.7123 37.3483 21.7888 37.5409 21.7888H41.8987C42.0913 21.7888 42.2761 21.7123 42.4123 21.5761C42.5485 21.4399 42.625 21.2551 42.625 21.0625C42.625 20.8699 42.5485 20.6851 42.4123 20.5489C42.2761 20.4127 42.0913 20.3362 41.8987 20.3362ZM39.5383 30.6016L35.763 28.4228C35.6804 28.3743 35.589 28.3427 35.4941 28.3297C35.3992 28.3167 35.3026 28.3227 35.21 28.3471C35.1174 28.3716 35.0306 28.4142 34.9545 28.4724C34.8784 28.5306 34.8146 28.6032 34.7667 28.6862C34.7188 28.7691 34.6878 28.8607 34.6754 28.9557C34.6631 29.0507 34.6696 29.1472 34.6947 29.2396C34.7198 29.332 34.763 29.4186 34.8217 29.4943C34.8803 29.57 34.9534 29.6334 35.0367 29.6807L38.812 31.8596C38.9787 31.9544 39.1761 31.9794 39.3612 31.9291C39.5463 31.8789 39.704 31.7574 39.7999 31.5913C39.8958 31.4253 39.9221 31.228 39.8731 31.0426C39.8241 30.8571 39.7037 30.6986 39.5383 30.6016ZM7.36202 28.4228L3.58675 30.6016C3.42129 30.6986 3.30092 30.8571 3.2519 31.0426C3.20288 31.228 3.22918 31.4253 3.32508 31.5913C3.42098 31.7574 3.57868 31.8789 3.76377 31.9291C3.94886 31.9794 4.14631 31.9544 4.31304 31.8596L8.08831 29.6807C8.17158 29.6334 8.24466 29.57 8.30334 29.4943C8.36203 29.4186 8.40516 29.332 8.43026 29.2396C8.45535 29.1472 8.46192 29.0507 8.44957 28.9557C8.43722 28.8607 8.40621 28.7691 8.35832 28.6862C8.31043 28.6032 8.2466 28.5306 8.17051 28.4724C8.09442 28.4142 8.00758 28.3716 7.91498 28.3471C7.82238 28.3227 7.72585 28.3167 7.63094 28.3297C7.53604 28.3427 7.44465 28.3743 7.36202 28.4228Z" fill="white"/>
<path d="M12.8328 12.3328C12.7312 12.4343 12.662 12.5637 12.634 12.7046C12.606 12.8455 12.6203 12.9916 12.6753 13.1243C12.7303 13.257 12.8233 13.3705 12.9428 13.4503C13.0622 13.5301 13.2027 13.5727 13.3463 13.5727C13.49 13.5727 13.6304 13.5301 13.7498 13.4503C13.8693 13.3705 13.9624 13.257 14.0173 13.1243C14.0723 12.9916 14.0867 12.8455 14.0586 12.7046C14.0306 12.5637 13.9614 12.4343 13.8598 12.3328C13.7236 12.1966 13.5389 12.1201 13.3463 12.1201C13.1537 12.1201 12.969 12.1966 12.8328 12.3328Z" fill="white"/>
</svg>
