<svg width="39" height="25" viewBox="0 0 39 25" fill="none" xmlns="http://www.w3.org/2000/svg">
<path d="M33.5392 24.3916H2.33333C2.11232 24.3916 1.90036 24.3038 1.74408 24.1475C1.5878 23.9913 1.5 23.7793 1.5 23.5583V5.69661C1.5 5.4756 1.5878 5.26364 1.74408 5.10736C1.90036 4.95108 2.11232 4.86328 2.33333 4.86328H33.5392C33.7602 4.86328 33.9721 4.95108 34.1284 5.10736C34.2847 5.26364 34.3725 5.4756 34.3725 5.69661V23.5583C34.3725 23.7793 34.2847 23.9913 34.1284 24.1475C33.9721 24.3038 33.7602 24.3916 33.5392 24.3916ZM3.16667 22.7249H32.7058V6.52995H3.16667V22.7249Z" fill="white"/>
<path d="M28.1669 21.866H7.71109C7.49008 21.866 7.27812 21.7782 7.12184 21.622C6.96556 21.4657 6.87776 21.2537 6.87776 21.0327C6.8771 20.5892 6.70056 20.164 6.38687 19.8505C6.07318 19.537 5.64794 19.3606 5.20443 19.3602C4.98341 19.3602 4.77145 19.2724 4.61517 19.1161C4.45889 18.9598 4.37109 18.7479 4.37109 18.5269V10.7277C4.37109 10.5067 4.45889 10.2947 4.61517 10.1384C4.77145 9.98216 4.98341 9.89436 5.20443 9.89436C5.64802 9.8937 6.07325 9.71719 6.38692 9.40352C6.70059 9.08986 6.8771 8.66462 6.87776 8.22103C6.87776 8.00001 6.96556 7.78805 7.12184 7.63177C7.27812 7.47549 7.49008 7.3877 7.71109 7.3877H28.1669C28.3879 7.3877 28.5999 7.47549 28.7562 7.63177C28.9125 7.78805 29.0003 8.00001 29.0003 8.22103C29.0007 8.66354 29.1762 9.0879 29.4885 9.40142C29.8008 9.71495 30.2244 9.89216 30.6669 9.89436C30.8879 9.89436 31.0999 9.98216 31.2562 10.1384C31.4125 10.2947 31.5003 10.5067 31.5003 10.7277V18.5269C31.5003 18.7479 31.4125 18.9598 31.2562 19.1161C31.0999 19.2724 30.8879 19.3602 30.6669 19.3602C30.2235 19.3606 29.7983 19.537 29.4848 19.8505C29.1712 20.1641 28.9949 20.5893 28.9944 21.0327C28.9944 21.2527 28.9074 21.4638 28.7524 21.6199C28.5974 21.776 28.3869 21.8645 28.1669 21.866ZM8.44276 20.1994H27.4428C27.5918 19.6224 27.8918 19.0955 28.312 18.6729C28.7322 18.2504 29.2574 17.9474 29.8336 17.7952V11.4552C29.2559 11.305 28.7288 11.0032 28.3068 10.5812C27.8847 10.1591 27.583 9.63203 27.4328 9.05436H8.43859C8.28853 9.63211 7.98686 10.1593 7.56477 10.5814C7.14269 11.0035 6.61551 11.3051 6.03776 11.4552V17.7952C6.61584 17.9457 7.1432 18.2479 7.5653 18.6706C7.9874 19.0933 8.28889 19.6211 8.43859 20.1994H8.44276Z" fill="white"/>
<path d="M17.9369 19.2199C17.0284 19.22 16.1401 18.9507 15.3846 18.446C14.6291 17.9414 14.0402 17.2239 13.6925 16.3845C13.3448 15.5451 13.2538 14.6214 13.4311 13.7303C13.6083 12.8392 14.0459 12.0207 14.6884 11.3783C15.3309 10.7359 16.1496 10.2984 17.0407 10.1213C17.9319 9.94421 18.8555 10.0354 19.6949 10.3833C20.5342 10.7311 21.2515 11.3201 21.7561 12.0757C22.2606 12.8314 22.5298 13.7196 22.5294 14.6282C22.5275 15.8455 22.0429 17.0124 21.1821 17.8731C20.3212 18.7338 19.1543 19.2181 17.9369 19.2199ZM17.9369 11.7007C17.3581 11.7005 16.7922 11.872 16.3108 12.1935C15.8295 12.5149 15.4542 12.9719 15.2325 13.5066C15.0109 14.0413 14.9528 14.6298 15.0655 15.1975C15.1783 15.7653 15.4569 16.2868 15.8661 16.6962C16.2752 17.1057 16.7966 17.3846 17.3643 17.4976C17.932 17.6107 18.5205 17.5529 19.0553 17.3316C19.5902 17.1102 20.0474 16.7352 20.3691 16.254C20.6908 15.7728 20.8626 15.207 20.8628 14.6282C20.8623 13.8522 20.554 13.1081 20.0054 12.5592C19.4569 12.0104 18.7129 11.7016 17.9369 11.7007Z" fill="white"/>
<path d="M35.5158 19.6188C35.302 19.6188 35.0964 19.5367 34.9414 19.3893C34.7865 19.242 34.6941 19.0407 34.6834 18.8272C34.6727 18.6137 34.7445 18.4042 34.8839 18.2421C35.0233 18.08 35.2197 17.9777 35.4325 17.9563L36.3941 17.8555L34.7025 1.74965L7.87498 4.56631C7.65507 4.58941 7.43499 4.5242 7.26316 4.38503C7.09133 4.24587 6.98182 4.04414 6.95873 3.82423C6.93563 3.60432 7.00084 3.38425 7.14001 3.21241C7.27917 3.04058 7.4809 2.93108 7.70081 2.90798L35.3541 0.00464784C35.463 -0.0069017 35.5731 0.00312476 35.6782 0.0341553C35.7832 0.0651859 35.8811 0.116612 35.9662 0.185492C36.0513 0.254373 36.1221 0.339356 36.1743 0.435586C36.2266 0.531816 36.2594 0.637404 36.2708 0.746314L38.1366 18.5105C38.1482 18.6194 38.1382 18.7295 38.1071 18.8345C38.0761 18.9395 38.0247 19.0374 37.9558 19.1225C37.8869 19.2077 37.8019 19.2784 37.7057 19.3307C37.6095 19.3829 37.5039 19.4157 37.395 19.4271L35.6041 19.6155C35.5741 19.6171 35.545 19.6188 35.5158 19.6188Z" fill="white"/>
</svg>
