<svg width="41" height="40" viewBox="0 0 41 40" fill="none" xmlns="http://www.w3.org/2000/svg">
<g clip-path="url(#clip0_489_910)">
<path d="M6.22372 27.5161H1.04067C0.96968 27.5161 0.899385 27.5301 0.833798 27.5572C0.768212 27.5844 0.708618 27.6242 0.658422 27.6744C0.608225 27.7246 0.568409 27.7842 0.541248 27.8498C0.514086 27.9154 0.500112 27.9857 0.500122 28.0566V39.4593C0.500112 39.5303 0.514086 39.6006 0.541248 39.6662C0.568409 39.7318 0.608225 39.7914 0.658422 39.8415C0.708618 39.8917 0.768212 39.9316 0.833798 39.9587C0.899385 39.9859 0.96968 39.9999 1.04067 39.9998H6.22364C6.29463 39.9999 6.36492 39.9859 6.43051 39.9587C6.4961 39.9316 6.55569 39.8917 6.60588 39.8415C6.65608 39.7914 6.6959 39.7318 6.72306 39.6662C6.75022 39.6006 6.76419 39.5303 6.76418 39.4593V28.0566C6.7642 27.9856 6.75024 27.9153 6.72309 27.8497C6.69593 27.7841 6.65612 27.7245 6.60593 27.6744C6.55574 27.6242 6.49615 27.5844 6.43057 27.5572C6.36499 27.53 6.2947 27.5161 6.22372 27.5161ZM5.68317 38.9188H1.58122V28.5971H5.68309L5.68317 38.9188ZM17.4689 20.5188H12.2859C12.2149 20.5188 12.1446 20.5328 12.079 20.56C12.0134 20.5871 11.9539 20.6269 11.9037 20.6771C11.8535 20.7273 11.8136 20.7869 11.7865 20.8525C11.7593 20.9181 11.7453 20.9884 11.7454 21.0594V39.4594C11.7453 39.5304 11.7593 39.6007 11.7865 39.6662C11.8136 39.7318 11.8535 39.7914 11.9037 39.8416C11.9539 39.8918 12.0134 39.9316 12.079 39.9588C12.1446 39.986 12.2149 39.9999 12.2859 39.9999H17.4689C17.5399 39.9999 17.6102 39.986 17.6757 39.9588C17.7413 39.9316 17.8009 39.8918 17.8511 39.8416C17.9013 39.7914 17.9411 39.7318 17.9683 39.6662C17.9955 39.6007 18.0094 39.5304 18.0094 39.4594V21.0593C18.0094 20.9883 17.9955 20.918 17.9683 20.8524C17.9411 20.7869 17.9013 20.7273 17.8511 20.6771C17.8009 20.6269 17.7413 20.5871 17.6757 20.5599C17.6101 20.5328 17.5399 20.5188 17.4689 20.5188ZM16.9283 38.9188H12.8264V21.5998H16.9283V38.9188ZM28.7141 15.7676H23.5311C23.4601 15.7676 23.3899 15.7815 23.3243 15.8087C23.2587 15.8359 23.1991 15.8757 23.1489 15.9259C23.0987 15.9761 23.0589 16.0357 23.0317 16.1013C23.0046 16.1668 22.9906 16.2371 22.9906 16.3081V39.4593C22.9906 39.5303 23.0046 39.6006 23.0317 39.6662C23.0589 39.7318 23.0987 39.7914 23.1489 39.8415C23.1991 39.8917 23.2587 39.9316 23.3243 39.9587C23.3899 39.9859 23.4601 39.9999 23.5311 39.9998H28.7141C28.7851 39.9999 28.8554 39.9859 28.921 39.9587C28.9866 39.9316 29.0462 39.8917 29.0964 39.8415C29.1466 39.7914 29.1864 39.7318 29.2135 39.6662C29.2407 39.6006 29.2547 39.5303 29.2547 39.4593V16.3081C29.2547 16.2371 29.2407 16.1668 29.2135 16.1013C29.1864 16.0357 29.1466 15.9761 29.0964 15.9259C29.0462 15.8757 28.9866 15.8359 28.921 15.8087C28.8554 15.7815 28.7851 15.7676 28.7141 15.7676ZM28.1736 38.9188H24.0717V16.8487H28.1736V38.9188ZM39.9595 9.89344H34.7765C34.7055 9.89343 34.6352 9.90741 34.5697 9.93457C34.5041 9.96173 34.4445 10.0015 34.3943 10.0517C34.3441 10.1019 34.3043 10.1615 34.2771 10.2271C34.2499 10.2927 34.236 10.363 34.236 10.434V39.4593C34.236 39.5303 34.2499 39.6006 34.2771 39.6662C34.3043 39.7318 34.3441 39.7914 34.3943 39.8415C34.4445 39.8917 34.5041 39.9316 34.5697 39.9587C34.6352 39.9859 34.7055 39.9999 34.7765 39.9998H39.9595C40.0305 39.9999 40.1008 39.9859 40.1664 39.9587C40.232 39.9316 40.2915 39.8917 40.3417 39.8415C40.3919 39.7914 40.4318 39.7318 40.4589 39.6662C40.4861 39.6006 40.5001 39.5303 40.5 39.4593V10.434C40.5001 10.363 40.4861 10.2927 40.4589 10.2271C40.4318 10.1615 40.3919 10.1019 40.3417 10.0517C40.2915 10.0015 40.232 9.96173 40.1664 9.93457C40.1008 9.90741 40.0305 9.89343 39.9595 9.89344ZM39.4189 38.9188H35.3171V10.9745H39.4189V38.9188ZM0.530278 22.0387C0.483168 21.9033 0.491755 21.7547 0.554151 21.6257C0.616547 21.4966 0.727644 21.3976 0.863013 21.3505C14.1322 16.7297 25.7487 9.93633 35.4214 1.16243L32.6711 1.31157C32.3752 1.32758 32.1182 1.09922 32.1023 0.801098C32.0985 0.730223 32.1086 0.659283 32.1322 0.592332C32.1558 0.525381 32.1923 0.46373 32.2397 0.410899C32.2871 0.358069 32.3444 0.315095 32.4085 0.284432C32.4725 0.253769 32.5419 0.236018 32.6128 0.232192L36.8765 0.000785631C36.9564 -0.00352681 37.0363 0.00995386 37.1104 0.0402548C37.1844 0.0705557 37.2508 0.116921 37.3048 0.176005C37.3588 0.235089 37.399 0.305417 37.4225 0.381915C37.446 0.458413 37.4522 0.539172 37.4407 0.618364L36.8255 4.84375C36.8048 4.9856 36.7286 5.11341 36.6137 5.1991C36.4987 5.28478 36.3545 5.32133 36.2126 5.30071C36.0708 5.27998 35.943 5.20377 35.8573 5.08885C35.7716 4.97392 35.735 4.82968 35.7557 4.68782L36.1532 1.95805C26.3714 10.8325 14.6282 17.7016 1.2184 22.3714C1.16126 22.3913 1.10119 22.4016 1.04067 22.4016C0.928445 22.4016 0.819016 22.3666 0.727561 22.3016C0.636105 22.2366 0.567157 22.1447 0.530278 22.0387Z" fill="white"/>
</g>
<defs>
<clipPath id="clip0_489_910">
<rect width="40" height="40" fill="white" transform="translate(0.5)"/>
</clipPath>
</defs>
</svg>
