<svg width="41" height="40" viewBox="0 0 41 40" fill="none" xmlns="http://www.w3.org/2000/svg">
<g clip-path="url(#clip0_478_647)">
<path d="M34.1036 14.017C36.24 12.8091 37.686 10.5163 37.686 7.89164C37.686 4.01516 34.5325 0.861328 30.6557 0.861328C26.5226 0.861328 23.2211 4.44516 23.6651 8.64555C21.679 7.64023 19.3228 7.63984 17.3359 8.64555C17.78 4.45437 14.4868 0.861328 10.3453 0.861328C6.46926 0.861328 3.31496 4.01516 3.31496 7.89164C3.31496 10.5164 4.7609 12.8091 6.89801 14.017C3.43004 15.3934 0.97168 18.7816 0.97168 22.734V31.3265C0.97168 31.7579 1.32113 32.1079 1.75293 32.1079H11.1265V38.3568C11.1265 38.7882 11.4767 39.1381 11.9078 39.1381H29.093C29.5247 39.1381 29.8743 38.7882 29.8743 38.3568V32.1079H39.2486C39.6797 32.1079 40.029 31.758 40.029 31.3265V22.734C40.0291 18.7816 37.5707 15.3934 34.1036 14.017ZM30.6556 2.42344C33.6711 2.42344 36.1232 4.87648 36.1232 7.89156C36.1232 10.907 33.6709 13.36 30.6556 13.36C29.1761 13.36 27.7973 12.7793 26.7611 11.7256C26.4751 11.1685 26.1164 10.6517 25.6945 10.1889C25.3596 9.46711 25.1871 8.695 25.1871 7.89156C25.1871 4.87656 27.6402 2.42344 30.6556 2.42344ZM25.9654 15.0539C25.8685 18.1094 23.3963 20.3904 20.5007 20.3904C17.4746 20.3904 15.0323 17.9232 15.0323 14.922C15.0323 11.9073 17.4853 9.45422 20.5007 9.45422C23.5428 9.45422 26.0401 11.9614 25.9654 15.0539ZM4.87738 7.89164C4.87738 4.87656 7.33043 2.42352 10.345 2.42352C13.3605 2.42352 15.8135 4.87656 15.8135 7.89164C15.8135 8.69508 15.6418 9.46719 15.3061 10.189C14.8841 10.6517 14.5254 11.1685 14.2395 11.7257C13.2033 12.7794 11.8254 13.3601 10.345 13.3601C7.33051 13.3601 4.87738 10.907 4.87738 7.89164ZM2.53348 30.5452V22.734C2.53348 18.4264 6.03793 14.922 10.345 14.922C11.4492 14.922 12.5082 15.1455 13.5016 15.5858C13.7221 17.9297 15.0979 19.9426 17.0526 21.0473C13.5847 22.4237 11.1264 25.8123 11.1264 29.7643V30.5452H2.53348ZM28.3125 37.576H12.6891V29.7644C12.6891 25.4568 16.1936 21.9528 20.5007 21.9528C24.808 21.9528 28.3125 25.457 28.3125 29.7644V37.576ZM38.4672 30.5452H29.8743V29.7643C29.8743 25.8123 27.4158 22.4237 23.9481 21.0473C25.9029 19.9425 27.2786 17.9297 27.4991 15.5858C28.4926 15.1455 29.5523 14.922 30.6557 14.922C34.9628 14.922 38.4671 18.4264 38.4671 22.734V30.5452H38.4672Z" fill="white"/>
</g>
<defs>
<clipPath id="clip0_478_647">
<rect width="40" height="40" fill="white" transform="translate(0.5)"/>
</clipPath>
</defs>
</svg>
