<svg width="32" height="32" viewBox="0 0 32 32" fill="none" xmlns="http://www.w3.org/2000/svg">
<path d="M21.7986 29C21.6231 29.0008 21.4492 28.9735 21.2867 28.9196C21.1243 28.8657 20.9765 28.7863 20.8519 28.6859L9.95858 19.8365C9.33774 19.3335 8.84517 18.7358 8.50908 18.0779C8.173 17.4199 8 16.7146 8 16.0022C8 15.2898 8.173 14.5845 8.50908 13.9265C8.84517 13.2686 9.33774 12.6709 9.95858 12.1679L20.8519 3.31854C20.9762 3.21755 21.1238 3.13744 21.2863 3.08279C21.4487 3.02813 21.6228 3 21.7986 3C21.9744 3 22.1485 3.02813 22.3109 3.08279C22.4733 3.13744 22.6209 3.21755 22.7452 3.31854C22.8696 3.41954 22.9682 3.53943 23.0355 3.67138C23.1027 3.80333 23.1374 3.94476 23.1374 4.08758C23.1374 4.2304 23.1027 4.37183 23.0355 4.50378C22.9682 4.63573 22.8696 4.75562 22.7452 4.85661L11.8519 13.7059C11.1028 14.3152 10.6821 15.1411 10.6821 16.0022C10.6821 16.8633 11.1028 17.6892 11.8519 18.2985L22.7452 27.1478C22.8702 27.2485 22.9694 27.3683 23.0371 27.5003C23.1048 27.6323 23.1396 27.7738 23.1396 27.9168C23.1396 28.0598 23.1048 28.2014 23.0371 28.3334C22.9694 28.4654 22.8702 28.5852 22.7452 28.6859C22.6207 28.7863 22.4729 28.8657 22.3105 28.9196C22.148 28.9735 21.9741 29.0008 21.7986 29Z" fill="white"/>
</svg>
