<svg width="20" height="20" viewBox="0 0 20 20" fill="none" xmlns="http://www.w3.org/2000/svg">
<path d="M16.0852 6.39957C15.8656 6.20014 15.5095 6.20014 15.2898 6.39957L8.55066 12.5173L5.96026 10.1658C5.7406 9.96636 5.38447 9.96638 5.16476 10.1658C4.94508 10.3652 4.94508 10.6885 5.16476 10.8879L8.15291 13.6005C8.3725 13.7999 8.7289 13.7998 8.9484 13.6005L16.0852 7.12172C16.3049 6.92231 16.3049 6.599 16.0852 6.39957Z" fill="#008719"/>
<path fill-rule="evenodd" clip-rule="evenodd" d="M10 18.75C14.8325 18.75 18.75 14.8325 18.75 10C18.75 5.16751 14.8325 1.25 10 1.25C5.16751 1.25 1.25 5.16751 1.25 10C1.25 14.8325 5.16751 18.75 10 18.75ZM10 20C15.5228 20 20 15.5228 20 10C20 4.47715 15.5228 0 10 0C4.47715 0 0 4.47715 0 10C0 15.5228 4.47715 20 10 20Z" fill="#008719"/>
</svg>
