<svg width="40" height="42" viewBox="0 0 40 42" fill="none" xmlns="http://www.w3.org/2000/svg">
<path fill-rule="evenodd" clip-rule="evenodd" d="M1.37934 36.7037C8.1159 36.7072 14.8499 36.7072 21.5895 36.7037C21.737 38.1297 22.356 39.4363 23.3185 40.3536H4.89491C3.03153 40.3536 1.68704 38.7337 1.37934 36.7037ZM35.1 1.64706C36.9634 1.64706 38.3104 3.26641 38.6181 5.29639H31.3945C31.5265 4.27819 31.9738 3.34873 32.6544 2.67845C33.335 2.00817 34.2033 1.64199 35.1 1.64706ZM10.0955 1.64706H31.9553C30.8973 2.66553 30.2056 4.18744 30.2056 5.88856L30.2026 36.0454C30.2051 36.6102 30.1104 37.1699 29.9239 37.6925C29.7373 38.2151 29.4627 38.6903 29.1156 39.0906C28.7686 39.491 28.3561 39.8087 27.9017 40.0254C27.4474 40.2421 26.9603 40.3537 26.4683 40.3536H26.4496C25.4605 40.3585 24.5102 39.9128 23.8071 39.1142C23.104 38.3156 22.7057 37.2295 22.6996 36.0941C22.7213 35.7461 22.5318 35.3807 22.1231 35.3906H6.34499V5.95584C6.34197 5.38933 6.4369 4.82776 6.62428 4.30366C6.81165 3.77956 7.08775 3.30335 7.43658 2.90259C7.78541 2.50184 8.20004 2.18452 8.65645 1.969C9.11286 1.75349 9.60198 1.64406 10.0955 1.64706ZM10.0955 0.333374C7.39238 0.333374 5.19806 2.85287 5.19806 5.95526V35.39H0.568411C0.173808 35.39 0 35.7368 0 36.0448C0 39.1478 2.1923 41.6667 4.89491 41.6667H26.4501C29.4609 41.6667 31.2768 38.7064 31.3475 36.0448V6.61008H39.4265C39.7423 6.61008 40 6.31718 40 5.95526C40 2.85229 37.8052 0.333374 35.1005 0.333374H10.0955Z" fill="white"/>
<path d="M35.271 14.4672H36.9161L36.9418 38.2087L36.1344 39.4528L35.2977 38.1809L35.271 14.4672ZM34.6424 13.1541C34.5012 13.1698 34.3701 13.2453 34.2747 13.366C34.1793 13.4866 34.1265 13.6437 34.1266 13.8066L34.1533 38.403C34.1533 38.5434 34.1927 38.6826 34.269 38.7974L35.6742 40.9428C35.7276 41.0249 35.797 41.0915 35.8769 41.1372C35.9568 41.183 36.0449 41.2067 36.1342 41.2063C36.2235 41.206 36.3114 41.1817 36.3911 41.1353C36.4707 41.0889 36.5397 41.0218 36.5927 40.9393L37.9761 38.8165C38.0499 38.7011 38.0898 38.566 38.0867 38.4233L38.061 13.8066C38.061 13.4441 37.8023 13.1506 37.4865 13.1541H34.6975C34.6793 13.1506 34.6607 13.1506 34.6424 13.1541ZM34.8051 10.7732C34.0422 10.7732 34.0998 12.0869 34.8652 12.0869H37.3501C38.1413 12.0869 38.1413 10.7732 37.3501 10.7732H34.8051ZM11.6842 9.85217C10.4104 9.85217 9.36353 11.0458 9.36353 12.5074V16.4804C9.36353 17.9396 10.4104 19.1292 11.6842 19.1292H15.0638C16.337 19.1292 17.387 17.939 17.387 16.4804V15.4045C17.387 14.5264 16.24 14.5264 16.24 15.4045V16.4804C16.24 17.2297 15.7257 17.8161 15.0638 17.8161H11.6842C11.0213 17.8161 10.511 17.2297 10.511 16.4804V12.5074C10.511 11.7557 11.0218 11.1693 11.6842 11.1693H14.8481C15.614 11.1693 15.614 9.85217 14.8481 9.85217H11.6842Z" fill="white"/>
<path d="M17.7316 10.3956C17.5821 10.3991 17.4398 10.4694 17.3349 10.5917L13.6769 14.7757L12.532 13.4702C12.4789 13.4091 12.4158 13.3606 12.3464 13.3275C12.2769 13.2944 12.2025 13.2773 12.1273 13.2773C12.0521 13.2772 11.9777 13.2941 11.9082 13.327C11.8387 13.36 11.7755 13.4083 11.7223 13.4693C11.6691 13.5303 11.6269 13.6027 11.598 13.6824C11.5692 13.7621 11.5543 13.8475 11.5542 13.9339C11.5542 14.0202 11.5689 14.1056 11.5976 14.1854C11.6263 14.2652 11.6684 14.3377 11.7215 14.3988L13.2737 16.1718C13.3809 16.2936 13.5256 16.3619 13.6764 16.3619C13.8272 16.3619 13.9719 16.2936 14.0791 16.1718L18.1449 11.5226C18.5142 11.1026 18.2474 10.3834 17.7316 10.3956ZM19.7187 17.8155C19.6411 17.8109 19.5635 17.8245 19.4906 17.8554C19.4177 17.8864 19.351 17.934 19.2947 17.9955C19.2383 18.0569 19.1934 18.1309 19.1628 18.2129C19.1321 18.2948 19.1163 18.3831 19.1163 18.4723C19.1163 18.5616 19.1321 18.6499 19.1628 18.7318C19.1934 18.8138 19.2383 18.8878 19.2947 18.9492C19.351 19.0107 19.4177 19.0583 19.4906 19.0892C19.5635 19.1202 19.6411 19.1338 19.7187 19.1292H26.5998C26.6774 19.1338 26.755 19.1202 26.8279 19.0892C26.9008 19.0583 26.9675 19.0107 27.0238 18.9492C27.0802 18.8878 27.1251 18.8138 27.1557 18.7318C27.1864 18.6499 27.2022 18.5616 27.2022 18.4723C27.2022 18.3831 27.1864 18.2948 27.1557 18.2129C27.1251 18.1309 27.0802 18.0569 27.0238 17.9955C26.9675 17.934 26.9008 17.8864 26.8279 17.8554C26.755 17.8245 26.6774 17.8109 26.5998 17.8155H19.7187ZM21.7367 9.85217C21.5843 9.85202 21.438 9.92121 21.33 10.0446C21.2219 10.168 21.1609 10.3355 21.1602 10.5105C21.1602 10.8764 21.4189 11.1693 21.7367 11.1693H26.5998C27.3657 11.1693 27.3657 9.85217 26.5998 9.85217H21.7367ZM19.7187 15.1597C19.6415 15.156 19.5645 15.1702 19.4922 15.2016C19.4199 15.2329 19.3539 15.2807 19.2981 15.3421C19.2423 15.4035 19.198 15.4772 19.1676 15.5588C19.1373 15.6404 19.1217 15.7281 19.1217 15.8168C19.1217 15.9055 19.1373 15.9933 19.1676 16.0749C19.198 16.1565 19.2423 16.2302 19.2981 16.2916C19.3539 16.353 19.4199 16.4008 19.4922 16.4321C19.5645 16.4635 19.6415 16.4777 19.7187 16.474H26.5998C26.677 16.4777 26.754 16.4635 26.8263 16.4321C26.8986 16.4008 26.9646 16.353 27.0204 16.2916C27.0762 16.2302 27.1205 16.1565 27.1509 16.0749C27.1812 15.9933 27.1968 15.9055 27.1968 15.8168C27.1968 15.7281 27.1812 15.6404 27.1509 15.5588C27.1205 15.4772 27.0762 15.4035 27.0204 15.3421C26.9646 15.2807 26.8986 15.2329 26.8263 15.2016C26.754 15.1702 26.677 15.156 26.5998 15.1597H19.7187ZM19.7187 12.5074C19.6415 12.5037 19.5645 12.5179 19.4922 12.5492C19.4199 12.5806 19.3539 12.6284 19.2981 12.6898C19.2423 12.7512 19.198 12.8249 19.1676 12.9065C19.1373 12.988 19.1217 13.0758 19.1217 13.1645C19.1217 13.2532 19.1373 13.341 19.1676 13.4226C19.198 13.5042 19.2423 13.5779 19.2981 13.6393C19.3539 13.7006 19.4199 13.7485 19.4922 13.7798C19.5645 13.8111 19.6415 13.8254 19.7187 13.8217H26.5998C26.677 13.8254 26.754 13.8111 26.8263 13.7798C26.8986 13.7485 26.9646 13.7006 27.0204 13.6393C27.0762 13.5779 27.1205 13.5042 27.1509 13.4226C27.1812 13.341 27.1968 13.2532 27.1968 13.1645C27.1968 13.0758 27.1812 12.988 27.1509 12.9065C27.1205 12.8249 27.0762 12.7512 27.0204 12.6898C26.9646 12.6284 26.8986 12.5806 26.8263 12.5492C26.754 12.5179 26.677 12.5037 26.5998 12.5074H19.7187ZM19.7187 30.0314C18.9533 30.0314 18.9533 31.3485 19.7187 31.3485H26.5998C27.3657 31.3485 27.3657 30.0314 26.5998 30.0314H19.7187ZM21.7367 22.0657C20.9707 22.0657 20.9707 23.3852 21.7367 23.3852H26.5998C27.3657 23.3852 27.3657 22.0657 26.5998 22.0657H21.7367ZM19.7187 27.3761C19.3999 27.3761 19.1442 27.6731 19.1442 28.0344C19.1442 28.4004 19.3999 28.6962 19.7187 28.6962H26.5998C27.3657 28.6962 27.3657 27.3767 26.5998 27.3767H19.7187V27.3761ZM19.7187 24.7209C19.3999 24.7209 19.1442 25.0167 19.1442 25.3827C19.1442 25.7452 19.3999 26.041 19.7187 26.041H26.5998C27.3657 26.041 27.3657 24.7215 26.5998 24.7215L19.7187 24.7209ZM11.6842 22.0709C10.4104 22.0709 9.36353 23.264 9.36353 24.7261V28.6991C9.36353 30.1584 10.4104 31.3485 11.6842 31.3485H15.0638C16.337 31.3485 17.387 30.1578 17.387 28.6991V27.6238C17.387 26.7434 16.24 26.7434 16.24 27.6238V28.6991C16.24 29.4479 15.7257 30.0337 15.0638 30.0337H11.6842C11.0213 30.0337 10.511 29.4479 10.511 28.6991V24.7261C10.511 23.9739 11.0218 23.3881 11.6842 23.3881H14.8481C15.614 23.3881 15.614 22.0709 14.8481 22.0709H11.6842Z" fill="white"/>
<path d="M17.7315 22.6163C17.5823 22.6195 17.44 22.6894 17.3349 22.8111L13.6769 26.9958L12.532 25.6908C12.4798 25.6256 12.4167 25.5732 12.3464 25.5367C12.2761 25.5003 12.2002 25.4804 12.1231 25.4785C12.046 25.4765 11.9693 25.4925 11.8977 25.5254C11.8262 25.5583 11.7611 25.6075 11.7065 25.6699C11.6518 25.7324 11.6087 25.8069 11.5798 25.889C11.5509 25.971 11.5367 26.059 11.5381 26.1475C11.5395 26.236 11.5565 26.3233 11.588 26.4041C11.6195 26.4848 11.665 26.5575 11.7215 26.6176L13.2737 28.3918C13.3807 28.5139 13.5255 28.5824 13.6764 28.5824C13.8273 28.5824 13.972 28.5139 14.0791 28.3918L18.1448 23.7426C18.5142 23.3227 18.2474 22.6035 17.7315 22.6163Z" fill="white"/>
</svg>
