<svg width="40" height="44" viewBox="0 0 40 44" fill="none" xmlns="http://www.w3.org/2000/svg">
<path fill-rule="evenodd" clip-rule="evenodd" d="M33.2511 42.6219H6.74847C5.17846 42.6219 3.91309 41.3565 3.91309 39.7865V5.50409C3.91309 3.93408 5.17846 2.6687 6.74847 2.6687H33.2511C34.7977 2.6687 36.063 3.93408 36.063 5.50409V39.7865C36.063 41.3565 34.7977 42.6219 33.2511 42.6219ZM6.74847 3.60602C5.69399 3.60602 4.8504 4.4496 4.8504 5.50409V39.7865C4.8504 40.841 5.69399 41.6845 6.74847 41.6845H33.2511C34.2821 41.6845 35.1257 40.841 35.1257 39.7865V5.50409C35.1257 4.4496 34.2821 3.60602 33.2511 3.60602H6.74847Z" fill="white"/>
<path fill-rule="evenodd" clip-rule="evenodd" d="M13.8018 19.0015C10.5681 19.0015 7.9436 16.377 7.9436 13.1433C7.9436 9.90952 10.5681 7.28503 13.8018 7.28503C17.0356 7.28503 19.6601 9.90952 19.6601 13.1433C19.6601 16.377 17.0356 19.0015 13.8018 19.0015ZM13.8018 8.22235C11.0836 8.22235 8.88092 10.425 8.88092 13.1433C8.88092 15.8615 11.0836 18.0642 13.8018 18.0642C16.5201 18.0642 18.7227 15.8615 18.7227 13.1433C18.7227 10.425 16.5201 8.22235 13.8018 8.22235Z" fill="white"/>
<path fill-rule="evenodd" clip-rule="evenodd" d="M9.32609 16.6113C8.9043 16.6113 8.6934 16.1192 8.97459 15.8145C11.4585 13.1198 16.1451 13.1198 18.629 15.8145C19.0508 16.2598 18.3712 16.8925 17.9494 16.4472C15.8404 14.1508 11.7631 14.1742 9.65415 16.4472C9.58385 16.541 9.44325 16.6113 9.32609 16.6113Z" fill="white"/>
<path fill-rule="evenodd" clip-rule="evenodd" d="M13.8018 13.1666C12.6068 13.1666 11.6226 12.1824 11.6226 10.9874C11.6226 9.76886 12.6068 8.80811 13.8018 8.80811C15.0203 8.80811 16.0045 9.76886 16.0045 10.9874C16.0045 12.1824 15.0203 13.1666 13.8018 13.1666ZM13.8018 9.74542C12.1615 9.74542 12.1615 12.2293 13.8018 12.2293C15.4421 12.2293 15.4421 9.74542 13.8018 9.74542ZM31.564 22.4929H8.41226C7.80301 22.4929 7.80301 21.5556 8.41226 21.5556H31.564C32.1967 21.5556 32.1967 22.4929 31.564 22.4929ZM31.564 27.6482H8.41226C7.80301 27.6482 7.80301 26.7343 8.41226 26.7343H31.564C32.1967 26.7343 32.1967 27.6482 31.564 27.6482ZM31.564 32.8269H8.41226C7.80301 32.8269 7.80301 31.8895 8.41226 31.8895H31.564C32.1967 31.8895 32.1967 32.8269 31.564 32.8269ZM20.1756 38.0055H8.41226C7.80301 38.0055 7.80301 37.0682 8.41226 37.0682H20.1756C20.7848 37.0682 20.7848 38.0055 20.1756 38.0055ZM30.9782 12.159H21.9096C21.3004 12.159 21.3004 11.2217 21.9096 11.2217H30.9782C31.5874 11.2217 31.5874 12.159 30.9782 12.159ZM30.9782 17.3143H21.9096C21.3004 17.3143 21.3004 16.3769 21.9096 16.3769H30.9782C31.5874 16.3769 31.5874 17.3143 30.9782 17.3143Z" fill="white"/>
</svg>
