<svg width="40" height="42" viewBox="0 0 40 42" fill="none" xmlns="http://www.w3.org/2000/svg">
<g clip-path="url(#clip0_692_1051)">
<g clip-path="url(#clip1_692_1051)">
<path d="M12.6034 13.827H12.2412H10.625C10.499 13.827 10.3782 13.877 10.2891 13.9661C10.2 14.0552 10.15 14.176 10.15 14.302V21.177C10.15 21.303 10.2 21.4238 10.2891 21.5129C10.3782 21.602 10.499 21.652 10.625 21.652C10.751 21.652 10.8718 21.602 10.9609 21.5129C11.0499 21.4238 11.1 21.303 11.1 21.177V14.927V14.777H11.25H13.75C13.75 14.777 13.75 14.777 13.75 14.777C13.8439 14.777 13.9357 14.7491 14.0138 14.6969C14.0919 14.6447 14.1528 14.5705 14.1887 14.4838C14.2246 14.397 14.234 14.3015 14.2157 14.2094C14.1974 14.1172 14.1522 14.0326 14.0858 13.9662L14.0858 13.9662M12.6034 13.827L14.1919 13.8601L14.0858 13.9662M12.6034 13.827L12.3473 13.5709L7.60605 8.82967L7.49999 8.72361L7.39392 8.82967L2.65267 13.5709L2.39661 13.827H2.75874H4.37499C4.50097 13.827 4.62178 13.877 4.71086 13.9661C4.79994 14.0552 4.84999 14.176 4.84999 14.302V21.177C4.84999 21.303 4.79994 21.4238 4.71086 21.5129C4.62178 21.602 4.50097 21.652 4.37499 21.652C4.24901 21.652 4.12819 21.602 4.03911 21.5129C3.95003 21.4238 3.89999 21.303 3.89999 21.177V14.927V14.777H3.74999H1.25002M12.6034 13.827L1.25002 14.777M14.0858 13.9662L7.83581 7.7162M14.0858 13.9662L7.83581 7.7162M7.83581 7.7162C7.83581 7.71619 7.8358 7.71619 7.8358 7.71618M7.83581 7.7162L7.8358 7.71618M1.25002 14.777C1.25001 14.777 1.25 14.777 1.24999 14.777C1.15607 14.777 1.06426 14.7491 0.986178 14.6969L0.902827 14.8216M1.25002 14.777L0.902827 14.8216M0.902827 14.8216L0.986178 14.6969C0.908084 14.6447 0.847217 14.5705 0.811274 14.4838M0.902827 14.8216L0.811274 14.4838M0.811274 14.4838C0.775331 14.397 0.765924 14.3015 0.784244 14.2094M0.811274 14.4838L0.784244 14.2094M0.784244 14.2094C0.802562 14.1172 0.847779 14.0326 0.91418 13.9662M0.784244 14.2094L0.91418 13.9662M0.91418 13.9662C0.914185 13.9662 0.91419 13.9662 0.914196 13.9662M0.91418 13.9662L0.914196 13.9662M0.914196 13.9662L7.16416 7.7162L0.914196 13.9662ZM7.49999 7.57712C7.37404 7.57712 7.25325 7.62714 7.16418 7.71618L7.49999 7.57712ZM7.49999 7.57712C7.62593 7.57712 7.74672 7.62714 7.8358 7.71618M7.49999 7.57712L7.8358 7.71618M37.2412 13.827H37.6034L37.3473 13.5709L32.606 8.82967L32.5 8.72361L32.3939 8.82967L27.6527 13.5709L27.3966 13.827H27.7587H29.375C29.501 13.827 29.6218 13.877 29.7109 13.9661C29.7999 14.0552 29.85 14.176 29.85 14.302V22.427C29.85 22.553 29.7999 22.6738 29.7109 22.7629C29.6218 22.852 29.501 22.902 29.375 22.902C29.249 22.902 29.1282 22.852 29.0391 22.7629C28.95 22.6738 28.9 22.553 28.9 22.427V14.927V14.777H28.75H26.25C26.25 14.777 26.25 14.777 26.25 14.777C26.1561 14.777 26.0643 14.7491 25.9862 14.6969C25.9081 14.6447 25.8472 14.5705 25.8113 14.4838C25.7753 14.397 25.7659 14.3015 25.7842 14.2094C25.8026 14.1172 25.8478 14.0326 25.9142 13.9662C25.9142 13.9662 25.9142 13.9662 25.9142 13.9662L32.1642 7.7162C32.2532 7.62715 32.374 7.57712 32.5 7.57712C32.6259 7.57712 32.7467 7.62714 32.8358 7.71618C32.8358 7.71619 32.8358 7.71619 32.8358 7.7162L39.0858 13.9662C39.1522 14.0326 39.1974 14.1172 39.2157 14.2094C39.234 14.3015 39.2246 14.397 39.1887 14.4838C39.1528 14.5705 39.0919 14.6447 39.0138 14.6969C38.9357 14.7491 38.8439 14.777 38.7499 14.777H36.25H36.1V14.927V24.8207C36.1 24.9467 36.0499 25.0675 35.9609 25.1566C35.8718 25.2457 35.751 25.2957 35.625 25.2957C35.499 25.2957 35.3782 25.2457 35.2891 25.1566C35.2 25.0675 35.15 24.9467 35.15 24.8207V14.302C35.15 14.176 35.2 14.0552 35.2891 13.9661C35.3782 13.877 35.499 13.827 35.625 13.827H37.2412ZM35 40.702H35.15V40.552V38.7832C35.15 38.6573 35.2 38.5365 35.2891 38.4474C35.3782 38.3583 35.499 38.3082 35.625 38.3082C35.751 38.3082 35.8718 38.3583 35.9609 38.4474C36.0499 38.5365 36.1 38.6573 36.1 38.7832V41.177C36.1 41.303 36.0499 41.4238 35.9609 41.5129C35.8718 41.602 35.751 41.652 35.625 41.652H29.375C29.249 41.652 29.1282 41.602 29.0391 41.5129C28.95 41.4238 28.9 41.303 28.9 41.177C28.9 41.051 28.95 40.9302 29.0391 40.8411C29.1282 40.752 29.249 40.702 29.375 40.702H35Z" fill="white" stroke="#6E8088" stroke-width="0.3"/>
<path d="M25.1034 9.45199H24.7412H23.125C22.999 9.45199 22.8782 9.50204 22.7891 9.59112C22.7 9.6802 22.65 9.80101 22.65 9.92699V19.727C22.65 19.853 22.7 19.9738 22.7891 20.0629C22.8782 20.1519 22.999 20.202 23.125 20.202C23.251 20.202 23.3718 20.1519 23.4609 20.0629C23.5499 19.9738 23.6 19.853 23.6 19.727V10.552V10.402H23.75H26.25C26.25 10.402 26.25 10.402 26.25 10.402C26.3439 10.402 26.4357 10.3741 26.5138 10.3219C26.5919 10.2697 26.6528 10.1955 26.6887 10.1088C26.7246 10.022 26.7341 9.92648 26.7157 9.83435C26.6974 9.74222 26.6522 9.6576 26.5858 9.59117L20.3358 3.3412C20.3358 3.34119 20.3358 3.34119 20.3358 3.34118C20.2467 3.25214 20.1259 3.20212 20 3.20212C19.874 3.20212 19.7533 3.25214 19.6642 3.34118L25.1034 9.45199ZM25.1034 9.45199L24.8473 9.19593L20.1061 4.45467L20 4.34861L19.8939 4.45467L15.1527 9.19593L14.8966 9.45199H15.2587H16.875C17.001 9.45199 17.1218 9.50204 17.2109 9.59112C17.2999 9.6802 17.35 9.80101 17.35 9.92699V16.8332C17.35 16.9592 17.2999 17.08 17.2109 17.1691C17.1218 17.2582 17.001 17.3082 16.875 17.3082C16.749 17.3082 16.6282 17.2582 16.5391 17.1691C16.45 17.08 16.4 16.9592 16.4 16.8332V10.552V10.402H16.25H13.75C13.75 10.402 13.75 10.402 13.75 10.402C13.6561 10.402 13.5643 10.3741 13.4862 10.3219C13.4081 10.2697 13.3472 10.1955 13.3113 10.1088C13.2753 10.022 13.2659 9.92648 13.2842 9.83435C13.3026 9.74223 13.3478 9.65761 13.4142 9.59118C13.4142 9.59118 13.4142 9.59117 13.4142 9.59117L19.6642 3.3412L25.1034 9.45199ZM29.3752 40.702C30.7554 40.7023 32.1167 40.3817 33.3517 39.7654C34.5867 39.149 35.6614 38.2538 36.4909 37.1506C37.3204 36.0474 37.8819 34.7664 38.1311 33.4088C38.3803 32.0512 38.3103 30.6543 37.9267 29.3284C37.5431 28.0025 36.8563 26.784 35.9207 25.7692C34.9851 24.7544 33.8263 23.9711 32.5359 23.4813C31.2455 22.9915 29.8588 22.8085 28.4855 22.9468C27.1121 23.0851 25.7898 23.541 24.623 24.2783L24.623 24.2783L24.6198 24.2804C24.5671 24.3156 24.5079 24.3399 24.4457 24.3519C24.3835 24.3639 24.3195 24.3633 24.2575 24.3502C24.1956 24.3371 24.1368 24.3117 24.0848 24.2755C24.0328 24.2394 23.9885 24.1932 23.9546 24.1397C23.9207 24.0861 23.8978 24.0264 23.8874 23.9639C23.8769 23.9014 23.8791 23.8375 23.8937 23.7758C23.9083 23.7142 23.9351 23.6561 23.9725 23.605C24.0099 23.5538 24.0572 23.5107 24.1115 23.4781L24.1115 23.4782L24.1145 23.4763C25.4058 22.6599 26.8693 22.1551 28.3893 22.0018C29.9093 21.8484 31.4441 22.0507 32.8724 22.5926C34.3008 23.1346 35.5835 24.0014 36.6191 25.1244C37.6548 26.2475 38.415 27.5961 38.8398 29.0635C39.2645 30.531 39.342 32.0772 39.0663 33.5798C38.7906 35.0824 38.1691 36.5003 37.2511 37.7214C36.333 38.9424 35.1435 39.9332 33.7765 40.6154C32.4096 41.2976 30.9027 41.6525 29.375 41.652H29.3748C27.5136 41.6549 25.6904 41.1259 24.1199 40.1273L24.1184 40.1264C24.065 40.0933 24.0187 40.0499 23.9822 39.9987C23.9457 39.9476 23.9197 39.8897 23.9057 39.8284C23.8917 39.7671 23.89 39.7037 23.9007 39.6418C23.9114 39.5798 23.9343 39.5207 23.9681 39.4676C24.0018 39.4146 24.0458 39.3688 24.0974 39.3329C24.1489 39.297 24.2071 39.2717 24.2686 39.2584C24.33 39.2452 24.3934 39.2442 24.4552 39.2557C24.517 39.2671 24.576 39.2907 24.6286 39.3251L24.6301 39.3261C26.0483 40.2277 27.6947 40.7051 29.3752 40.702ZM29.3752 40.702C29.3751 40.702 29.375 40.702 29.375 40.702L29.375 40.552L29.3753 40.702C29.3753 40.702 29.3752 40.702 29.3752 40.702Z" fill="white" stroke="#6E8088" stroke-width="0.3"/>
<path d="M26.5858 35.2628L26.5858 35.2628L32.834 29.0147C32.8343 29.0144 32.8346 29.014 32.8349 29.0137C32.9208 28.9242 32.9684 28.8047 32.9673 28.6806C32.9662 28.556 32.9163 28.4369 32.8282 28.3488L32.9343 28.2427L32.8282 28.3488C32.7401 28.2607 32.621 28.2108 32.4964 28.2097C32.3723 28.2086 32.2527 28.2562 32.1632 28.3422C32.1629 28.3425 32.1626 28.3427 32.1623 28.343L25.9142 34.5912C25.8478 34.6576 25.8026 34.7422 25.7843 34.8344C25.7659 34.9265 25.7753 35.022 25.8113 35.1088C25.8472 35.1955 25.9081 35.2697 25.9862 35.3219C26.0643 35.3741 26.1561 35.402 26.25 35.402L26.5858 35.2628ZM26.5858 35.2628C26.4967 35.3519 26.376 35.402 26.25 35.402L26.5858 35.2628ZM1.875 21.652H1.725V21.802V23.052V23.202H1.875H10.625C10.751 23.202 10.8718 23.252 10.9609 23.3411C11.05 23.4302 11.1 23.551 11.1 23.677C11.1 23.803 11.05 23.9238 10.9609 24.0129C10.8718 24.102 10.751 24.152 10.625 24.152H1.25C1.12402 24.152 1.0032 24.102 0.914124 24.0129C0.825045 23.9238 0.775 23.803 0.775 23.677V21.177C0.775 21.051 0.825045 20.9302 0.914124 20.8411C1.0032 20.752 1.12402 20.702 1.25 20.702H11.0938C11.2197 20.702 11.3405 20.752 11.4296 20.8411C11.5187 20.9302 11.5688 21.051 11.5688 21.177C11.5688 21.303 11.5187 21.4238 11.4296 21.5129C11.3405 21.602 11.2197 21.652 11.0938 21.652H1.875ZM26.875 31.027C26.5338 31.027 26.2003 30.9258 25.9166 30.7363C25.633 30.5467 25.4119 30.2773 25.2813 29.9621C25.1507 29.6469 25.1166 29.3001 25.1831 28.9655C25.2497 28.6309 25.414 28.3235 25.6552 28.0822C25.8965 27.841 26.2039 27.6767 26.5385 27.6101C26.8731 27.5436 27.2199 27.5777 27.5351 27.7083C27.8503 27.8389 28.1197 28.06 28.3093 28.3436C28.4988 28.6273 28.6 28.9608 28.6 29.302C28.6 29.7595 28.4183 30.1983 28.0948 30.5218C27.7713 30.8453 27.3325 31.027 26.875 31.027ZM26.875 28.527C26.7217 28.527 26.5719 28.5725 26.4444 28.6576C26.317 28.7428 26.2177 28.8638 26.159 29.0054C26.1003 29.147 26.085 29.3029 26.1149 29.4532C26.1448 29.6035 26.2186 29.7416 26.327 29.85C26.4354 29.9584 26.5735 30.0322 26.7238 30.0621C26.8741 30.092 27.03 30.0767 27.1716 30.018C27.3132 29.9594 27.4342 29.86 27.5194 29.7326C27.6045 29.6051 27.65 29.4553 27.65 29.302C27.65 29.0965 27.5683 28.8993 27.423 28.754C27.2777 28.6087 27.0805 28.527 26.875 28.527ZM31.875 36.027C31.5338 36.027 31.2003 35.9258 30.9166 35.7363C30.633 35.5467 30.4119 35.2773 30.2813 34.9621C30.1507 34.6469 30.1166 34.3001 30.1831 33.9655C30.2497 33.6309 30.414 33.3235 30.6552 33.0822C30.8965 32.841 31.2039 32.6767 31.5385 32.6101C31.8731 32.5436 32.2199 32.5778 32.5351 32.7083C32.8503 32.8389 33.1197 33.06 33.3093 33.3436C33.4988 33.6273 33.6 33.9608 33.6 34.302C33.6 34.7595 33.4183 35.1983 33.0948 35.5218C32.7713 35.8453 32.3325 36.027 31.875 36.027ZM31.875 33.527C31.7217 33.527 31.5719 33.5725 31.4444 33.6576C31.317 33.7428 31.2177 33.8638 31.159 34.0054C31.1003 34.147 31.085 34.3029 31.1149 34.4532C31.1448 34.6035 31.2186 34.7416 31.327 34.85C31.4354 34.9584 31.5735 35.0322 31.7238 35.0621C31.8741 35.092 32.03 35.0767 32.1716 35.018C32.3132 34.9594 32.4342 34.86 32.5194 34.7326C32.6045 34.6051 32.65 34.4553 32.65 34.302C32.65 34.0965 32.5683 33.8993 32.423 33.754C32.2777 33.6087 32.0805 33.527 31.875 33.527Z" fill="white" stroke="#6E8088" stroke-width="0.3"/>
<path d="M1.875 24.152H1.725V24.302V25.552V25.702H1.875H11.0938C11.2197 25.702 11.3405 25.752 11.4296 25.8411C11.5187 25.9302 11.5688 26.051 11.5688 26.177C11.5688 26.303 11.5187 26.4238 11.4296 26.5129C11.3405 26.602 11.2197 26.652 11.0938 26.652H1.25C1.12402 26.652 1.0032 26.602 0.914124 26.5129C0.825045 26.4238 0.775 26.303 0.775 26.177V23.677C0.775 23.551 0.825045 23.4302 0.914124 23.3411C1.0032 23.252 1.12402 23.202 1.25 23.202H10.625C10.751 23.202 10.8718 23.252 10.9609 23.3411C11.05 23.4302 11.1 23.551 11.1 23.677C11.1 23.803 11.05 23.9238 10.9609 24.0129C10.8718 24.102 10.751 24.152 10.625 24.152H1.875Z" fill="white" stroke="#6E8088" stroke-width="0.3"/>
<path d="M1.875 26.652H1.725V26.802V28.052V28.202H1.875H12.7812C12.9072 28.202 13.028 28.252 13.1171 28.3411C13.2062 28.4302 13.2562 28.551 13.2562 28.677C13.2562 28.803 13.2062 28.9238 13.1171 29.0129C13.028 29.102 12.9072 29.152 12.7812 29.152H1.25C1.12402 29.152 1.0032 29.102 0.914124 29.0129C0.825045 28.9238 0.775 28.803 0.775 28.677V26.177C0.775 26.051 0.825045 25.9302 0.914124 25.8411C1.0032 25.752 1.12402 25.702 1.25 25.702H11.0937C11.2197 25.702 11.3405 25.752 11.4296 25.8411C11.5187 25.9302 11.5687 26.051 11.5687 26.177C11.5687 26.303 11.5187 26.4238 11.4296 26.5129C11.3405 26.602 11.2197 26.652 11.0937 26.652H1.875Z" fill="white" stroke="#6E8088" stroke-width="0.3"/>
<path d="M1.875 29.152H1.725V29.302V30.552V30.702H1.875H14.375H14.525V30.552V30.0833C14.525 29.9573 14.575 29.8365 14.6641 29.7474C14.7532 29.6583 14.874 29.6083 15 29.6083C15.126 29.6083 15.2468 29.6583 15.3359 29.7474C15.425 29.8365 15.475 29.9573 15.475 30.0833V31.177C15.475 31.303 15.425 31.4238 15.3359 31.5129C15.2468 31.602 15.126 31.652 15 31.652H1.25C1.12402 31.652 1.0032 31.602 0.914124 31.5129C0.825045 31.4238 0.775 31.303 0.775 31.177V28.677C0.775 28.551 0.825045 28.4302 0.914124 28.3411C1.0032 28.252 1.12402 28.202 1.25 28.202H12.7812C12.9072 28.202 13.028 28.252 13.1171 28.3411C13.2062 28.4302 13.2563 28.551 13.2563 28.677C13.2563 28.803 13.2062 28.9238 13.1171 29.0129C13.028 29.102 12.9072 29.152 12.7812 29.152H1.875Z" fill="white" stroke="#6E8088" stroke-width="0.3"/>
<path d="M1.725 33.052V33.202H1.875H10H10.15V33.052V31.802V31.652H10H1.875H1.725V31.802V33.052ZM10.625 34.152H1.25C1.12402 34.152 1.0032 34.102 0.914124 34.0129C0.825045 33.9238 0.775 33.803 0.775 33.677V31.177C0.775 31.051 0.825045 30.9302 0.914124 30.8411C1.0032 30.752 1.12402 30.702 1.25 30.702H10.625C10.751 30.702 10.8718 30.752 10.9609 30.8411C11.05 30.9302 11.1 31.051 11.1 31.177V33.677C11.1 33.803 11.05 33.9238 10.9609 34.0129C10.8718 34.102 10.751 34.152 10.625 34.152Z" fill="white" stroke="#6E8088" stroke-width="0.3"/>
<path d="M1.725 35.552V35.702H1.875H10H10.15V35.552V34.302V34.152H10H1.875H1.725V34.302V35.552ZM10.625 36.652H1.25C1.12402 36.652 1.0032 36.602 0.914124 36.5129C0.825045 36.4238 0.775 36.303 0.775 36.177V33.677C0.775 33.551 0.825045 33.4302 0.914124 33.3411C1.0032 33.252 1.12402 33.202 1.25 33.202H10.625C10.751 33.202 10.8718 33.252 10.9609 33.3411C11.05 33.4302 11.1 33.551 11.1 33.677V36.177C11.1 36.303 11.05 36.4238 10.9609 36.5129C10.8718 36.602 10.751 36.652 10.625 36.652Z" fill="white" stroke="#6E8088" stroke-width="0.3"/>
<path d="M1.725 38.052V38.202H1.875H10H10.15V38.052V36.802V36.652H10H1.875H1.725V36.802V38.052ZM10.625 39.152H1.25C1.12402 39.152 1.0032 39.102 0.914124 39.0129C0.825045 38.9238 0.775 38.803 0.775 38.677V36.177C0.775 36.051 0.825045 35.9302 0.914124 35.8411C1.0032 35.752 1.12402 35.702 1.25 35.702H10.625C10.751 35.702 10.8718 35.752 10.9609 35.8411C11.05 35.9302 11.1 36.051 11.1 36.177V38.677C11.1 38.803 11.05 38.9238 10.9609 39.0129C10.8718 39.102 10.751 39.152 10.625 39.152Z" fill="white" stroke="#6E8088" stroke-width="0.3"/>
<path d="M1.725 40.552V40.702H1.875H10H10.15V40.552V39.302V39.152H10H1.875H1.725V39.302V40.552ZM17.5002 17.277H17.5C16.2342 17.277 14.9968 17.6524 13.9444 18.3556C12.8919 19.0588 12.0716 20.0584 11.5872 21.2278C11.1028 22.3973 10.976 23.6841 11.223 24.9256C11.4699 26.1671 12.0795 27.3074 12.9745 28.2025C13.8696 29.0975 15.0099 29.7071 16.2514 29.954C17.4929 30.201 18.7797 30.0742 19.9492 29.5898C21.1186 29.1054 22.1182 28.2851 22.8214 27.2327C23.5246 26.1802 23.9 24.9428 23.9 23.677V23.6768C23.898 21.9801 23.2231 20.3535 22.0233 19.1537C20.8235 17.954 19.1969 17.279 17.5002 17.277ZM10.625 41.652H1.25C1.12402 41.652 1.0032 41.602 0.914124 41.5129C0.825045 41.4238 0.775 41.303 0.775 41.177V38.677C0.775 38.551 0.825045 38.4302 0.914124 38.3411C1.0032 38.2521 1.12402 38.202 1.25 38.202H10.625C10.751 38.202 10.8718 38.2521 10.9609 38.3411C11.05 38.4302 11.1 38.551 11.1 38.677V41.177C11.1 41.303 11.05 41.4238 10.9609 41.5129C10.8718 41.602 10.751 41.652 10.625 41.652ZM17.4998 31.027C16.0462 31.027 14.6252 30.5959 13.4166 29.7883C12.2079 28.9807 11.2658 27.8328 10.7095 26.4897C10.1532 25.1467 10.0076 23.6689 10.2912 22.2431C10.5748 20.8173 11.2748 19.5077 12.3028 18.4798C13.3307 17.4519 14.6403 16.7518 16.0661 16.4682C17.4918 16.1846 18.9697 16.3302 20.3127 16.8865C21.6558 17.4428 22.8037 18.3849 23.6113 19.5936C24.4189 20.8022 24.85 22.2232 24.85 23.6768C24.8479 25.6256 24.0728 27.4939 22.6949 28.8719C21.3169 30.2498 19.4486 31.0249 17.4998 31.027Z" fill="white" stroke="#6E8088" stroke-width="0.3"/>
<path d="M11.1 33.052V33.202H11.25H23.75H23.9V33.052V31.802V31.652H23.75H11.25H11.1V31.802V33.052ZM24.375 34.152H10.625C10.499 34.152 10.3782 34.102 10.2891 34.0129C10.2 33.9238 10.15 33.803 10.15 33.677V31.177C10.15 31.051 10.2 30.9302 10.2891 30.8411C10.3782 30.752 10.499 30.702 10.625 30.702H24.375C24.501 30.702 24.6218 30.752 24.7109 30.8411C24.8 30.9302 24.85 31.051 24.85 31.177V33.677C24.85 33.803 24.8 33.9238 24.7109 34.0129C24.6218 34.102 24.501 34.152 24.375 34.152Z" fill="white" stroke="#6E8088" stroke-width="0.3"/>
<path d="M11.1 35.552V35.702H11.25H23.75H23.9V35.552V34.302V34.152H23.75H11.25H11.1V34.302V35.552ZM24.375 36.652H10.625C10.499 36.652 10.3782 36.602 10.2891 36.5129C10.2 36.4238 10.15 36.303 10.15 36.177V33.677C10.15 33.551 10.2 33.4302 10.2891 33.3411C10.3782 33.252 10.499 33.202 10.625 33.202H24.375C24.501 33.202 24.6218 33.252 24.7109 33.3411C24.8 33.4302 24.85 33.551 24.85 33.677V36.177C24.85 36.303 24.8 36.4238 24.7109 36.5129C24.6218 36.602 24.501 36.652 24.375 36.652Z" fill="white" stroke="#6E8088" stroke-width="0.3"/>
<path d="M11.1 38.052V38.202H11.25H23.75H23.9V38.052V36.802V36.652H23.75H11.25H11.1V36.802V38.052ZM24.375 39.152H10.625C10.499 39.152 10.3782 39.102 10.2891 39.0129C10.2 38.9238 10.15 38.803 10.15 38.677V36.177C10.15 36.051 10.2 35.9302 10.2891 35.8411C10.3782 35.752 10.499 35.702 10.625 35.702H24.375C24.501 35.702 24.6218 35.752 24.7109 35.8411C24.8 35.9302 24.85 36.051 24.85 36.177V38.677C24.85 38.803 24.8 38.9238 24.7109 39.0129C24.6218 39.102 24.501 39.152 24.375 39.152Z" fill="white" stroke="#6E8088" stroke-width="0.3"/>
<path d="M11.1 40.552V40.702H11.25H23.75H23.9V40.552V39.302V39.152H23.75H11.25H11.1V39.302V40.552ZM24.375 41.652H10.625C10.499 41.652 10.3782 41.602 10.2891 41.5129C10.2 41.4238 10.15 41.303 10.15 41.177V38.677C10.15 38.551 10.2 38.4302 10.2891 38.3411C10.3782 38.252 10.499 38.202 10.625 38.202H24.375C24.501 38.202 24.6218 38.252 24.7109 38.3411C24.8 38.4302 24.85 38.551 24.85 38.677V41.177C24.85 41.303 24.8 41.4238 24.7109 41.5129C24.6218 41.602 24.501 41.652 24.375 41.652Z" fill="white" stroke="#6E8088" stroke-width="0.3"/>
</g>
</g>
<defs>
<clipPath id="clip0_692_1051">
<rect width="40" height="41.5385" fill="white" transform="translate(0 0.230713)"/>
</clipPath>
<clipPath id="clip1_692_1051">
<rect width="40" height="41.5385" fill="white" transform="translate(0 0.199951)"/>
</clipPath>
</defs>
</svg>
