<svg width="40" height="40" viewBox="0 0 40 40" fill="none" xmlns="http://www.w3.org/2000/svg">
<path d="M12.246 36.6401H8.7104C8.54067 36.6401 8.37788 36.5727 8.25786 36.4526C8.13783 36.3326 8.0704 36.1698 8.0704 36.0001V25.7801C8.0704 25.6103 8.13783 25.4476 8.25786 25.3275C8.37788 25.2075 8.54067 25.1401 8.7104 25.1401H12.246C12.4157 25.1401 12.5785 25.2075 12.6986 25.3275C12.8186 25.4476 12.886 25.6103 12.886 25.7801V36.0001C12.886 36.1698 12.8186 36.3326 12.6986 36.4526C12.5785 36.5727 12.4157 36.6401 12.246 36.6401ZM9.3504 35.3601H11.606V26.4201H9.3504V35.3601ZM18.594 36.6401H15.0584C14.8887 36.6401 14.7259 36.5727 14.6059 36.4526C14.4858 36.3326 14.4184 36.1698 14.4184 36.0001V21.8949C14.4184 21.7251 14.4858 21.5624 14.6059 21.4423C14.7259 21.3223 14.8887 21.2549 15.0584 21.2549H18.594C18.7637 21.2549 18.9265 21.3223 19.0466 21.4423C19.1666 21.5624 19.234 21.7251 19.234 21.8949V36.0001C19.234 36.1698 19.1666 36.3326 19.0466 36.4526C18.9265 36.5727 18.7637 36.6401 18.594 36.6401ZM15.6984 35.3601H17.954V22.5349H15.6984V35.3601ZM24.9416 36.6401H21.4064C21.2367 36.6401 21.0739 36.5727 20.9539 36.4526C20.8338 36.3326 20.7664 36.1698 20.7664 36.0001V23.7685C20.7664 23.5987 20.8338 23.436 20.9539 23.3159C21.0739 23.1959 21.2367 23.1285 21.4064 23.1285H24.9416C25.1113 23.1285 25.2741 23.1959 25.3942 23.3159C25.5142 23.436 25.5816 23.5987 25.5816 23.7685V36.0001C25.5816 36.1698 25.5142 36.3326 25.3942 36.4526C25.2741 36.5727 25.1113 36.6401 24.9416 36.6401ZM22.0464 35.3601H24.3016V24.4085H22.0464V35.3601ZM31.2896 36.6401H27.7544C27.5847 36.6401 27.4219 36.5727 27.3019 36.4526C27.1818 36.3326 27.1144 36.1698 27.1144 36.0001V18.0033C27.1144 17.8335 27.1818 17.6708 27.3019 17.5507C27.4219 17.4307 27.5847 17.3633 27.7544 17.3633H31.2896C31.4593 17.3633 31.6221 17.4307 31.7422 17.5507C31.8622 17.6708 31.9296 17.8335 31.9296 18.0033V36.0001C31.9296 36.1698 31.8622 36.3326 31.7422 36.4526C31.6221 36.5727 31.4593 36.6401 31.2896 36.6401ZM28.3944 35.3601H30.6496V18.6433H28.3944V35.3601Z" fill="white"/>
<path d="M8.76001 23.0485C8.15479 23.0465 7.57452 22.807 7.14401 22.3817C6.65848 21.8957 6.37739 21.2423 6.35842 20.5555C6.33945 19.8688 6.58405 19.2009 7.04201 18.6889L14.3112 10.7537C14.4176 10.6337 15.1088 9.89206 16.0344 9.89166C16.4032 9.89166 16.9476 10.0117 17.4512 10.5933L17.5616 10.7213C17.6872 10.8665 17.806 11.0041 17.9284 11.1377L20.4484 13.8873C20.6723 14.1278 20.8816 14.3816 21.0752 14.6473L21.1024 14.6165L21.106 14.6121C21.1704 14.5369 21.2372 14.4593 21.3084 14.3813L27.026 8.14126L25.5968 6.58126C25.5238 6.50167 25.4721 6.4049 25.4465 6.29994C25.4209 6.19499 25.4224 6.08528 25.4506 5.98103C25.4789 5.87677 25.5331 5.78137 25.6082 5.70371C25.6833 5.62604 25.7768 5.56864 25.88 5.53686L32.8136 3.38886C32.9174 3.35665 33.0277 3.35141 33.134 3.37361C33.2404 3.39581 33.3394 3.44474 33.4216 3.51577C33.5039 3.5868 33.5667 3.6776 33.6041 3.77961C33.6415 3.88163 33.6524 3.99149 33.6356 4.09886L32.3404 12.3817C32.3218 12.5007 32.2699 12.6121 32.1907 12.703C32.1116 12.7939 32.0084 12.8606 31.893 12.8955C31.7776 12.9303 31.6547 12.9318 31.5385 12.8998C31.4222 12.8679 31.3174 12.8038 31.236 12.7149L30.0232 11.3909L22.1336 20.0041C21.8388 20.3241 21.0936 20.7717 20.1704 20.4021C19.8672 20.2778 19.5961 20.0863 19.3776 19.8421L16.1004 16.2645C16.0936 16.2558 16.0851 16.2486 16.0755 16.2432C16.0659 16.2379 16.0553 16.2345 16.0444 16.2333C16.0334 16.2345 16.0228 16.2379 16.0131 16.2432C16.0034 16.2486 15.9949 16.2558 15.988 16.2645L10.48 22.2769C10.2707 22.5101 10.0164 22.6986 9.73234 22.8311C9.44831 22.9636 9.14043 23.0372 8.8272 23.0477C8.8056 23.0485 8.78321 23.0485 8.76001 23.0485ZM8.03521 21.4629C8.13402 21.5619 8.2518 21.6399 8.3815 21.6924C8.51119 21.7448 8.65013 21.7706 8.79001 21.7681C8.93206 21.7622 9.07146 21.7276 9.19981 21.6664C9.32815 21.6052 9.44279 21.5187 9.53681 21.4121L15.044 15.4001C15.1699 15.2595 15.3241 15.1471 15.4964 15.0702C15.6687 14.9932 15.8553 14.9534 16.044 14.9534C16.2327 14.9534 16.4193 14.9932 16.5916 15.0702C16.7639 15.1471 16.9181 15.2595 17.044 15.4001L20.32 18.9777C20.4095 19.0794 20.5204 19.16 20.6448 19.2137C20.9832 19.3493 21.1864 19.1417 21.1884 19.1393L29.5484 10.0113C29.6084 9.94578 29.6813 9.89349 29.7626 9.85772C29.8438 9.82195 29.9316 9.80348 30.0204 9.80348C30.1092 9.80348 30.197 9.82195 30.2783 9.85772C30.3595 9.89349 30.4324 9.94578 30.4924 10.0113L31.28 10.8693L32.2104 4.91526L27.2224 6.46086L28.3656 7.70846C28.4738 7.82648 28.5338 7.98076 28.5338 8.14086C28.5338 8.30095 28.4738 8.45523 28.3656 8.57326L22.252 15.2473C22.1952 15.3093 22.138 15.3761 22.078 15.4473L22.074 15.4521C21.72 15.8649 21.3444 16.0621 20.9572 16.0389C20.6276 16.0193 20.3328 15.8389 20.1264 15.5281C19.9393 15.2537 19.7312 14.9942 19.504 14.7521L16.984 12.0025C16.8488 11.8549 16.7188 11.7037 16.5928 11.5581L16.484 11.4325C16.2588 11.1729 16.0916 11.1717 16.0368 11.1717H16.034C15.7216 11.1717 15.3676 11.4917 15.268 11.6025C15.2624 11.6093 15.2644 11.6065 15.2588 11.6129L7.98641 19.5533C7.50641 20.0785 7.52841 20.9709 8.03561 21.4629H8.03521Z" fill="white"/>
</svg>
