<svg width="41" height="40" viewBox="0 0 41 40" fill="none" xmlns="http://www.w3.org/2000/svg">
<g clip-path="url(#clip0_692_1126)">
<path d="M13.3173 17.7701H16.3692C17.1641 17.7701 17.8108 17.1234 17.8108 16.3285V15.267C17.8108 14.4721 17.1641 13.8255 16.3692 13.8255H13.3173C12.5224 13.8255 11.8758 14.4721 11.8758 15.267V16.3285C11.8757 17.1234 12.5224 17.7701 13.3173 17.7701ZM13.1257 15.267C13.1257 15.1631 13.2134 15.0755 13.3172 15.0755H16.3691C16.473 15.0755 16.5607 15.1631 16.5607 15.267V16.3285C16.5607 16.4323 16.473 16.5201 16.3691 16.5201H13.3172C13.2134 16.5201 13.1257 16.4323 13.1257 16.3285V15.267ZM9.6632 25.2777H6.61125C5.81641 25.2777 5.16977 25.9244 5.16977 26.7193V27.7809C5.16977 28.5758 5.81641 29.2224 6.61125 29.2224H9.6632C10.458 29.2224 11.1047 28.5758 11.1047 27.7809V26.7193C11.1047 25.9244 10.458 25.2777 9.6632 25.2777ZM9.85469 27.7809C9.85469 27.8847 9.76703 27.9724 9.6632 27.9724H6.61125C6.50742 27.9724 6.41977 27.8847 6.41977 27.7809V26.7193C6.41977 26.6155 6.50742 26.5277 6.61125 26.5277H9.6632C9.76703 26.5277 9.85469 26.6155 9.85469 26.7193V27.7809ZM9.6632 19.5516H6.61125C5.81641 19.5516 5.16977 20.1982 5.16977 20.9931V22.0547C5.16977 22.8496 5.81641 23.4963 6.61125 23.4963H9.6632C10.458 23.4963 11.1047 22.8496 11.1047 22.0547V20.9931C11.1047 20.1982 10.458 19.5516 9.6632 19.5516ZM9.85469 22.0547C9.85469 22.1585 9.76703 22.2463 9.6632 22.2463H6.61125C6.50742 22.2463 6.41977 22.1585 6.41977 22.0547V20.9931C6.41977 20.8893 6.50742 20.8016 6.61125 20.8016H9.6632C9.76703 20.8016 9.85469 20.8893 9.85469 20.9931V22.0547ZM17.8108 26.7193C17.8108 25.9244 17.1641 25.2777 16.3692 25.2777H13.3173C12.5224 25.2777 11.8758 25.9244 11.8758 26.7193V27.7809C11.8758 28.5758 12.5224 29.2224 13.3173 29.2224H16.3692C17.1641 29.2224 17.8108 28.5758 17.8108 27.7809V26.7193ZM16.5608 27.7809C16.5608 27.8847 16.473 27.9724 16.3692 27.9724H13.3173C13.2134 27.9724 13.1258 27.8847 13.1258 27.7809V26.7193C13.1258 26.6155 13.2134 26.5277 13.3173 26.5277H16.3692C16.473 26.5277 16.5608 26.6155 16.5608 26.7193V27.7809ZM9.6632 13.8255H6.61125C5.81641 13.8255 5.16977 14.4721 5.16977 15.267V16.3285C5.16977 17.1234 5.81641 17.7701 6.61125 17.7701H9.6632C10.458 17.7701 11.1047 17.1234 11.1047 16.3285V15.267C11.1047 14.4721 10.458 13.8255 9.6632 13.8255ZM9.85469 16.3285C9.85469 16.4323 9.76703 16.5201 9.6632 16.5201H6.61125C6.50742 16.5201 6.41977 16.4323 6.41977 16.3285V15.267C6.41977 15.1631 6.50742 15.0755 6.61125 15.0755H9.6632C9.76703 15.0755 9.85469 15.1631 9.85469 15.267V16.3285ZM13.3173 23.4963H16.3692C17.1641 23.4963 17.8108 22.8496 17.8108 22.0547V20.9931C17.8108 20.1982 17.1641 19.5516 16.3692 19.5516H13.3173C12.5224 19.5516 11.8758 20.1982 11.8758 20.9931V22.0547C11.8757 22.8496 12.5224 23.4963 13.3173 23.4963ZM13.1257 20.9931C13.1257 20.8893 13.2134 20.8016 13.3172 20.8016H16.3691C16.473 20.8016 16.5607 20.8893 16.5607 20.9931V22.0547C16.5607 22.1585 16.473 22.2463 16.3691 22.2463H13.3172C13.2134 22.2463 13.1257 22.1585 13.1257 22.0547V20.9931ZM39.0778 24.7853C37.9369 22.7821 36.1971 20.518 33.639 17.7122C34.3488 17.3414 34.8346 16.5985 34.8346 15.7438C34.8346 14.6049 33.9721 13.664 32.8662 13.5388L34.4247 11.9802C35.3073 11.0974 35.3073 9.66125 34.4246 8.77859C33.6775 8.03164 32.4895 7.90406 31.6 8.475C31.5329 8.51828 31.473 8.52367 31.3991 8.49289C31.3255 8.46242 31.2868 8.41609 31.2698 8.3382C31.0535 7.34758 30.1887 6.61945 29.1866 6.56117V4.17711C29.1865 1.87383 27.3127 0 25.0095 0H4.67703C2.37375 0 0.5 1.87383 0.5 4.17711V30.1437C0.5 32.447 2.37375 34.3208 4.67703 34.3208H18.7488C18.8078 34.4301 18.8689 34.5382 18.9321 34.6452C20.8976 37.9616 24.6841 40.0002 28.8523 40H29.263C33.431 40 37.2179 37.9614 39.1832 34.6452C40.9688 31.632 40.9305 28.0382 39.0778 24.7853ZM33.5845 15.7438C33.5845 16.2785 33.1495 16.7135 32.6148 16.7135H25.5005C24.9657 16.7135 24.5307 16.2785 24.5307 15.7438C24.5307 15.2091 24.9657 14.7741 25.5005 14.7741H32.6148C33.1495 14.7741 33.5845 15.2092 33.5845 15.7438ZM30.0485 8.605C30.1527 9.08141 30.4705 9.46148 30.9206 9.64781C31.3709 9.83477 31.8648 9.79055 32.2752 9.52703C32.6738 9.27133 33.2062 9.32812 33.5408 9.66266C33.731 9.85289 33.8357 10.1073 33.8357 10.3795C33.8357 10.6516 33.7309 10.9061 33.5407 11.0963L31.113 13.5242H27.0025L24.5746 11.0963C24.3843 10.9061 24.2796 10.6516 24.2796 10.3795C24.2796 10.1073 24.3844 9.85289 24.5746 9.66266C24.909 9.32805 25.4412 9.27094 25.8403 9.52703C26.2507 9.79039 26.7443 9.83438 27.1946 9.64797C27.645 9.46141 27.9629 9.08125 28.0669 8.60484C28.168 8.1418 28.5848 7.8057 29.0577 7.80562C29.5307 7.80555 29.9473 8.14172 30.0485 8.605ZM23.0724 9.93656H5.86102C5.75719 9.93656 5.66945 9.84883 5.66945 9.745V6.53992C5.66945 6.43609 5.75719 6.34844 5.86102 6.34844H23.8254C23.9292 6.34844 24.017 6.43609 24.017 6.53992V8.51062C23.8999 8.58943 23.7906 8.67921 23.6906 8.77875C23.3736 9.09435 23.1583 9.49759 23.0724 9.93656ZM4.67703 33.0708C3.06305 33.0708 1.75 31.7577 1.75 30.1437V4.17711C1.75 2.56312 3.06305 1.25 4.67703 1.25H25.0095C26.6234 1.25 27.9365 2.56312 27.9365 4.17711V6.85758C27.3947 7.16937 26.9852 7.69938 26.8457 8.33828C26.8286 8.41625 26.7899 8.46258 26.7164 8.49297C26.6427 8.52375 26.5827 8.51813 26.5154 8.47508C26.1346 8.2307 25.6992 8.11531 25.267 8.12062V6.53992C25.267 5.74508 24.6204 5.09844 23.8255 5.09844H5.86102C5.06609 5.09844 4.41945 5.74508 4.41945 6.53992V9.74492C4.41945 10.5398 5.06609 11.1865 5.86102 11.1865H23.177C23.29 11.4845 23.4651 11.755 23.6906 11.9802L25.2493 13.5388C24.7559 13.5946 24.3112 13.8128 23.9698 14.1386C23.7157 13.9358 23.4003 13.8253 23.0752 13.8254H20.0234C19.2284 13.8254 18.5818 14.472 18.5818 15.2669V16.3284C18.5818 17.1234 19.2284 17.77 20.0234 17.77H23.0752C23.4419 17.77 23.7759 17.6313 24.0306 17.4051C24.1662 17.5252 24.3158 17.6283 24.4763 17.7121C23.8926 18.3523 23.3516 18.9643 22.8505 19.5515H20.0233C19.2284 19.5515 18.5817 20.1981 18.5817 20.993V22.0547C18.5817 22.7872 19.1313 23.3926 19.8396 23.4832C19.5445 23.9305 19.2775 24.3638 19.0374 24.7853C17.498 27.4881 17.2126 30.4259 18.1838 33.0708H4.67703ZM23.2668 15.267V16.3285C23.2668 16.4323 23.1791 16.5201 23.0752 16.5201H20.0234C19.9195 16.5201 19.8318 16.4323 19.8318 16.3285V15.267C19.8318 15.1631 19.9195 15.0755 20.0234 15.0755H23.0752C23.1791 15.0755 23.2668 15.1631 23.2668 15.267ZM20.7024 22.2463H20.0234C19.9195 22.2463 19.8318 22.1585 19.8318 22.0547V20.9931C19.8318 20.8893 19.9195 20.8016 20.0234 20.8016H21.814C21.4328 21.2748 21.0622 21.7565 20.7024 22.2463ZM38.1079 34.0079C36.3673 36.945 32.9914 38.75 29.2632 38.75H28.8521C25.1242 38.75 21.7479 36.9448 20.0074 34.0079C18.4342 31.3533 18.4755 28.2977 20.1235 25.4039C21.296 23.3454 23.1483 20.9767 25.943 17.9636H32.172C34.9668 20.9767 36.8191 23.3455 37.9916 25.4039C39.6397 28.2977 39.681 31.3533 38.1079 34.0079Z" fill="white"/>
</g>
<defs>
<clipPath id="clip0_692_1126">
<rect width="40" height="40" fill="white" transform="translate(0.5)"/>
</clipPath>
</defs>
</svg>
