<svg width="41" height="40" viewBox="0 0 41 40" fill="none" xmlns="http://www.w3.org/2000/svg">
<path d="M6.42526 13.0364H13.5449C13.5225 13.1897 13.5051 13.3436 13.4929 13.498V13.4981C13.4819 13.6452 13.5013 13.793 13.5499 13.9323C13.5985 14.0715 13.6752 14.1993 13.7753 14.3077C13.8759 14.4155 13.9976 14.5016 14.1328 14.5604C14.268 14.6193 14.4139 14.6497 14.5614 14.6498H26.4384C26.7363 14.6498 27.0229 14.525 27.2246 14.3075C27.4263 14.09 27.5292 13.7949 27.5069 13.498C27.4947 13.3436 27.4774 13.1897 27.4549 13.0364H34.5746C34.8573 13.0364 35.1294 12.918 35.321 12.7115C35.416 12.6086 35.4889 12.4873 35.535 12.355C35.5812 12.2228 35.5996 12.0825 35.5892 11.9428C35.4063 9.50406 33.8119 7.46305 31.6492 6.60078C32.4849 5.92828 33.0213 4.89797 33.0213 3.74414C33.0214 1.72266 31.377 0.078125 29.3556 0.078125C27.3342 0.078125 25.6896 1.72266 25.6896 3.74406C25.6896 4.89758 26.2256 5.92773 27.0612 6.60023C26.1175 6.9756 25.2788 7.57415 24.6171 8.34461C24.1004 7.96833 23.5349 7.66404 22.9362 7.44008C23.9362 6.69477 24.5851 5.50336 24.5851 4.16313C24.585 1.91062 22.7525 0.078125 20.5 0.078125C18.2475 0.078125 16.415 1.91062 16.415 4.16313C16.415 5.50336 17.0639 6.69477 18.0639 7.44008C17.4652 7.66407 16.8997 7.96836 16.383 8.34461C15.7213 7.57415 14.8826 6.9756 13.9389 6.60023C14.7744 5.92773 15.3105 4.89758 15.3105 3.74406C15.3104 1.72266 13.6659 0.078125 11.6445 0.078125C9.62307 0.078125 7.97861 1.72266 7.97861 3.74406C7.97861 4.89781 8.51494 5.9282 9.35072 6.6007C7.18791 7.46297 5.59354 9.50399 5.41065 11.9426C5.40021 12.0822 5.41863 12.2225 5.46474 12.3548C5.51085 12.487 5.58368 12.6084 5.67869 12.7113C5.77416 12.8138 5.88971 12.8956 6.01814 12.9515C6.14658 13.0074 6.28516 13.0363 6.42526 13.0364ZM26.9396 3.74406C26.9396 2.41195 28.0234 1.32813 29.3556 1.32813C30.6878 1.32813 31.7715 2.41195 31.7715 3.74406C31.7715 5.07594 30.6881 6.15953 29.3563 6.16H29.3546C28.0228 6.15945 26.9396 5.07594 26.9396 3.74406ZM29.3546 7.41H29.3563C31.8739 7.41039 34.0063 9.31305 34.3179 11.7864H27.1578C26.8217 10.7947 26.2696 9.9032 25.5596 9.16555C26.5081 8.05836 27.8917 7.41023 29.3546 7.41ZM17.665 4.16313C17.665 2.59984 18.9367 1.32813 20.5 1.32813C22.0633 1.32813 23.335 2.59984 23.335 4.16313C23.335 5.72633 22.0633 6.99805 20.5 6.99805C18.9367 6.99805 17.665 5.72625 17.665 4.16313ZM26.243 13.3998H14.7571C15.0728 10.4955 17.5589 8.24805 20.5 8.24805C23.4411 8.24805 25.9271 10.4955 26.243 13.3998ZM9.22861 3.74406C9.22861 2.41195 10.3124 1.32813 11.6446 1.32813C12.9767 1.32813 14.0605 2.41195 14.0605 3.74406C14.0605 5.07586 12.9772 6.15945 11.6455 6.16H11.6438C10.3119 6.15961 9.22861 5.07594 9.22861 3.74406ZM11.6438 7.41H11.6455C13.1085 7.41023 14.4921 8.05836 15.4406 9.16555C14.7307 9.9032 14.1786 10.7947 13.8424 11.7864H6.68229C6.99385 9.31305 9.12619 7.41039 11.6438 7.41ZM39.9021 29.8202L37.2115 16.3145C37.1431 15.9711 36.9444 15.6744 36.6521 15.4791C36.3598 15.284 36.0097 15.2141 35.666 15.2825L32.2038 15.9723C31.8603 16.0407 31.5636 16.2394 31.3684 16.5317C31.1731 16.8241 31.1033 17.1743 31.1717 17.5177L31.2022 17.6706C29.1339 18.3539 26.621 18.545 23.4957 15.9666C22.0601 14.7823 20.1892 14.7435 18.84 15.8699L17.4435 17.036H9.83307C9.74213 16.5172 9.34322 16.0812 8.79643 15.9723L5.33416 15.2825C4.99072 15.214 4.64041 15.2839 4.34815 15.4791C4.0558 15.6744 3.85705 15.9711 3.78869 16.3145L1.09799 29.8202C1.02955 30.1637 1.0994 30.5138 1.29463 30.8063C1.48979 31.0986 1.78651 31.2973 2.12994 31.3657L5.59221 32.0555C5.76141 32.0895 5.93567 32.0896 6.10493 32.0559C6.27418 32.0221 6.43507 31.9552 6.5783 31.8589C6.87065 31.6637 7.0694 31.367 7.13776 31.0235L7.1483 30.9707L15.3397 39.162C15.8472 39.6695 16.5138 39.9232 17.1805 39.9231C17.8471 39.9231 18.5137 39.6694 19.0212 39.162C19.3638 38.8195 19.5988 38.3971 19.7092 37.9361L20.8305 39.0573C21.8456 40.0722 23.4971 40.072 24.5121 39.0572C24.8503 38.7197 25.0885 38.2952 25.2003 37.8306C25.685 38.2923 26.3197 38.5457 26.995 38.5456C27.6919 38.5456 28.3456 38.2756 28.8358 37.7855C29.3952 37.226 29.6462 36.4732 29.589 35.7402C29.6564 35.7454 29.7243 35.748 29.7927 35.748C30.4895 35.748 31.1432 35.478 31.6335 34.9877C32.3179 34.3034 32.5531 33.282 32.2746 32.3734L33.8229 30.8252L33.8624 31.0235C33.9307 31.367 34.1295 31.6637 34.4218 31.8589C34.565 31.9552 34.7259 32.0221 34.8952 32.0559C35.0644 32.0896 35.2386 32.0895 35.4078 32.0555L38.8701 31.3657C39.2135 31.2973 39.5103 31.0986 39.7055 30.8063C39.9006 30.5138 39.9705 30.1637 39.9021 29.8202ZM5.88424 30.8193C5.87735 30.8241 5.86958 30.8274 5.86139 30.8292C5.8532 30.8309 5.84474 30.8311 5.8365 30.8295L2.37432 30.1398C2.35369 30.1356 2.34111 30.1224 2.33416 30.112C2.32721 30.1016 2.31979 30.085 2.32393 30.0645L5.01447 16.5587C5.01621 16.5505 5.01955 16.5428 5.0243 16.5359C5.02904 16.529 5.0351 16.5232 5.04213 16.5187C5.04895 16.5138 5.0567 16.5104 5.0649 16.5086C5.0731 16.5069 5.08156 16.5068 5.08979 16.5084L8.55197 17.1982C8.56842 17.2019 8.58288 17.2118 8.59226 17.2258C8.60163 17.2398 8.60528 17.2569 8.60244 17.2735L5.9119 30.7793C5.91018 30.7875 5.90684 30.7952 5.9021 30.8021C5.89735 30.809 5.89128 30.8148 5.88424 30.8193ZM30.7495 34.1037C30.4953 34.3578 30.1554 34.4978 29.7924 34.4978C29.4295 34.4978 29.0897 34.3579 28.8356 34.1038L22.9453 28.2135C22.8874 28.1549 22.8185 28.1083 22.7425 28.0764C22.6665 28.0445 22.585 28.028 22.5026 28.0278C22.4202 28.0275 22.3386 28.0435 22.2624 28.075C22.1863 28.1064 22.117 28.1525 22.0588 28.2108C22.0005 28.269 21.9543 28.3383 21.9229 28.4144C21.8915 28.4906 21.8755 28.5722 21.8757 28.6546C21.8759 28.737 21.8925 28.8185 21.9244 28.8945C21.9562 28.9705 22.0028 29.0394 22.0614 29.0973L27.9517 34.9877C28.4794 35.5152 28.4794 36.3738 27.9518 36.9014C27.6977 37.1555 27.3578 37.2954 26.9948 37.2954C26.6318 37.2954 26.292 37.1555 26.038 36.9015L19.8139 30.6774C19.6965 30.5614 19.5379 30.4965 19.3728 30.497C19.2077 30.4975 19.0495 30.5633 18.9327 30.6801C18.816 30.7968 18.7502 30.955 18.7497 31.1201C18.7492 31.2852 18.814 31.4438 18.93 31.5613L23.6281 36.2593L23.6305 36.2617C24.1557 36.7895 24.1549 37.6462 23.6281 38.173C23.1004 38.7006 22.2419 38.7007 21.7143 38.1731L16.6827 33.1415C16.5652 33.0254 16.4066 32.9606 16.2415 32.9611C16.0764 32.9616 15.9182 33.0274 15.8015 33.1441C15.6847 33.2609 15.6189 33.4191 15.6184 33.5842C15.6179 33.7493 15.6827 33.9079 15.7988 34.0253L18.1375 36.3641L18.1379 36.3645C18.3917 36.6185 18.5316 36.9581 18.5316 37.3209C18.5316 37.6839 18.3916 38.0238 18.1374 38.2779C17.6099 38.8055 16.7514 38.8055 16.2238 38.2779L7.44197 29.4965L9.67526 18.286H15.9461L14.1973 19.7462C13.4208 20.3944 13.0874 21.2788 13.2824 22.1727L14.6906 28.6259C14.7085 28.7075 14.7424 28.7847 14.7906 28.8529C14.8387 28.9211 14.9 28.979 14.9708 29.0231C15.0417 29.0673 15.1207 29.0968 15.2031 29.1099C15.2856 29.123 15.3698 29.1195 15.4509 29.0995C17.1469 28.6816 18.2812 27.8638 18.9185 26.5993C19.4688 25.5075 19.5779 24.267 19.6935 22.9536C19.7082 22.787 19.7229 22.6195 19.7387 22.4516C19.7399 22.4432 19.7411 22.4365 19.7424 22.4312C19.9658 22.3542 20.996 22.5782 22.5445 23.9852L31.0229 32.5873C31.2517 33.0955 31.145 33.7082 30.7495 34.1037ZM31.5444 31.3356L23.4228 23.0957C23.415 23.0877 23.4069 23.08 23.3986 23.0724C21.7707 21.5893 20.2358 20.9137 19.2928 21.2655C18.8456 21.4323 18.5555 21.813 18.4967 22.3102C18.4961 22.3152 18.4956 22.3201 18.4951 22.3251C18.4788 22.4988 18.4635 22.672 18.4483 22.8441C18.2442 25.1637 18.0926 26.8883 15.7688 27.7038L14.5037 21.9063C14.3772 21.3267 14.7593 20.9054 14.9984 20.7058L19.641 16.8295C20.5139 16.1007 21.7433 16.1415 22.7001 16.9309C26.225 19.839 29.1775 19.6246 31.4479 18.9049L33.529 29.3512L31.5444 31.3356ZM38.6659 30.112C38.6614 30.1191 38.6555 30.1252 38.6486 30.13C38.6417 30.1347 38.6339 30.1381 38.6256 30.1398L35.1635 30.8295C35.1429 30.8336 35.1262 30.8263 35.1158 30.8193C35.1054 30.8123 35.0922 30.7998 35.0881 30.7792L32.3975 17.2734C32.3934 17.253 32.4008 17.2363 32.4078 17.2259C32.4147 17.2156 32.4273 17.2023 32.4479 17.1982L35.9101 16.5084C35.914 16.5077 35.9179 16.5073 35.9219 16.5073C35.937 16.5073 35.9496 16.5131 35.9578 16.5187C35.9682 16.5256 35.9814 16.5382 35.9855 16.5588L38.676 30.0646C38.6776 30.0728 38.6775 30.0812 38.6758 30.0894C38.674 30.0975 38.6707 30.1052 38.6659 30.112Z" fill="white"/>
</svg>
