<svg width="41" height="40" viewBox="0 0 41 40" fill="none" xmlns="http://www.w3.org/2000/svg">
<path fill-rule="evenodd" clip-rule="evenodd" d="M20.058 2.62667C20.1905 2.54389 20.3435 2.5 20.4997 2.5C20.6559 2.5 20.8089 2.54389 20.9413 2.62667L24.4913 4.84334C26.4421 6.06286 28.6352 6.84261 30.918 7.12834L33.9363 7.50667C34.1379 7.53185 34.3232 7.62975 34.4577 7.78197C34.5921 7.93419 34.6663 8.13026 34.6663 8.33334V19.095C34.6664 22.0631 33.9114 24.9824 32.4726 27.5785C31.0338 30.1745 28.9583 32.3619 26.4413 33.935L20.9413 37.3733C20.8089 37.4561 20.6559 37.5 20.4997 37.5C20.3435 37.5 20.1905 37.4561 20.058 37.3733L14.558 33.935C12.0411 32.3619 9.96559 30.1745 8.52675 27.5785C7.08791 24.9824 6.333 22.0631 6.33301 19.095V8.33334C6.33307 8.13026 6.40728 7.93419 6.5417 7.78197C6.67612 7.62975 6.8615 7.53185 7.06301 7.50667L10.0813 7.12834C12.3646 6.84336 14.5583 6.06416 16.5097 4.845L20.058 2.62667ZM20.4997 4.31667L17.393 6.25834C15.2363 7.60629 12.8117 8.46796 10.288 8.78334L7.99967 9.06667V19.095C7.99995 21.7801 8.6831 24.4211 9.98489 26.7696C11.2867 29.1181 13.1643 31.0969 15.4413 32.52L20.4997 35.6833L25.558 32.5217C27.8352 31.0984 29.7131 29.1193 31.0149 26.7705C32.3167 24.4217 32.9997 21.7804 32.9997 19.095V9.07L30.7113 8.785C28.1877 8.46963 25.7631 7.60796 23.6063 6.26L20.4997 4.31667Z" fill="white"/>
<path fill-rule="evenodd" clip-rule="evenodd" d="M26.9235 15.5902L20.2568 22.2568C20.1005 22.413 19.8886 22.5008 19.6676 22.5008C19.4466 22.5008 19.2347 22.413 19.0785 22.2568L15.7451 18.9235L16.9235 17.7452L19.6668 20.4885L25.7451 14.4102L26.9235 15.5902Z" fill="white"/>
</svg>
