<svg width="41" height="40" viewBox="0 0 41 40" fill="none" xmlns="http://www.w3.org/2000/svg">
<path d="M12.746 36.6401H9.2104C9.04067 36.6401 8.87788 36.5727 8.75786 36.4526C8.63783 36.3326 8.5704 36.1698 8.5704 36.0001V25.7801C8.5704 25.6103 8.63783 25.4476 8.75786 25.3275C8.87788 25.2075 9.04067 25.1401 9.2104 25.1401H12.746C12.9157 25.1401 13.0785 25.2075 13.1986 25.3275C13.3186 25.4476 13.386 25.6103 13.386 25.7801V36.0001C13.386 36.1698 13.3186 36.3326 13.1986 36.4526C13.0785 36.5727 12.9157 36.6401 12.746 36.6401ZM9.8504 35.3601H12.106V26.4201H9.8504V35.3601ZM19.094 36.6401H15.5584C15.3887 36.6401 15.2259 36.5727 15.1059 36.4526C14.9858 36.3326 14.9184 36.1698 14.9184 36.0001V21.8949C14.9184 21.7251 14.9858 21.5624 15.1059 21.4423C15.2259 21.3223 15.3887 21.2549 15.5584 21.2549H19.094C19.2637 21.2549 19.4265 21.3223 19.5466 21.4423C19.6666 21.5624 19.734 21.7251 19.734 21.8949V36.0001C19.734 36.1698 19.6666 36.3326 19.5466 36.4526C19.4265 36.5727 19.2637 36.6401 19.094 36.6401ZM16.1984 35.3601H18.454V22.5349H16.1984V35.3601ZM25.4416 36.6401H21.9064C21.7367 36.6401 21.5739 36.5727 21.4539 36.4526C21.3338 36.3326 21.2664 36.1698 21.2664 36.0001V23.7685C21.2664 23.5987 21.3338 23.436 21.4539 23.3159C21.5739 23.1959 21.7367 23.1285 21.9064 23.1285H25.4416C25.6113 23.1285 25.7741 23.1959 25.8942 23.3159C26.0142 23.436 26.0816 23.5987 26.0816 23.7685V36.0001C26.0816 36.1698 26.0142 36.3326 25.8942 36.4526C25.7741 36.5727 25.6113 36.6401 25.4416 36.6401ZM22.5464 35.3601H24.8016V24.4085H22.5464V35.3601ZM31.7896 36.6401H28.2544C28.0847 36.6401 27.9219 36.5727 27.8019 36.4526C27.6818 36.3326 27.6144 36.1698 27.6144 36.0001V18.0033C27.6144 17.8335 27.6818 17.6708 27.8019 17.5507C27.9219 17.4307 28.0847 17.3633 28.2544 17.3633H31.7896C31.9593 17.3633 32.1221 17.4307 32.2422 17.5507C32.3622 17.6708 32.4296 17.8335 32.4296 18.0033V36.0001C32.4296 36.1698 32.3622 36.3326 32.2422 36.4526C32.1221 36.5727 31.9593 36.6401 31.7896 36.6401ZM28.8944 35.3601H31.1496V18.6433H28.8944V35.3601Z" fill="white"/>
<path d="M9.26001 23.0485C8.65479 23.0465 8.07452 22.807 7.64401 22.3817C7.15848 21.8957 6.87739 21.2423 6.85842 20.5555C6.83945 19.8688 7.08405 19.2009 7.54201 18.6889L14.8112 10.7537C14.9176 10.6337 15.6088 9.89206 16.5344 9.89166C16.9032 9.89166 17.4476 10.0117 17.9512 10.5933L18.0616 10.7213C18.1872 10.8665 18.306 11.0041 18.4284 11.1377L20.9484 13.8873C21.1723 14.1278 21.3816 14.3816 21.5752 14.6473L21.6024 14.6165L21.606 14.6121C21.6704 14.5369 21.7372 14.4593 21.8084 14.3813L27.526 8.14126L26.0968 6.58126C26.0238 6.50167 25.9721 6.4049 25.9465 6.29994C25.9209 6.19499 25.9224 6.08528 25.9506 5.98103C25.9789 5.87677 26.0331 5.78137 26.1082 5.70371C26.1833 5.62604 26.2768 5.56864 26.38 5.53686L33.3136 3.38886C33.4174 3.35665 33.5277 3.35141 33.634 3.37361C33.7404 3.39581 33.8394 3.44474 33.9216 3.51577C34.0039 3.5868 34.0667 3.6776 34.1041 3.77961C34.1415 3.88163 34.1524 3.99149 34.1356 4.09886L32.8404 12.3817C32.8218 12.5007 32.7699 12.6121 32.6907 12.703C32.6116 12.7939 32.5084 12.8606 32.393 12.8955C32.2776 12.9303 32.1547 12.9318 32.0385 12.8998C31.9222 12.8679 31.8174 12.8038 31.736 12.7149L30.5232 11.3909L22.6336 20.0041C22.3388 20.3241 21.5936 20.7717 20.6704 20.4021C20.3672 20.2778 20.0961 20.0863 19.8776 19.8421L16.6004 16.2645C16.5936 16.2558 16.5851 16.2486 16.5755 16.2432C16.5659 16.2379 16.5553 16.2345 16.5444 16.2333C16.5334 16.2345 16.5228 16.2379 16.5131 16.2432C16.5034 16.2486 16.4949 16.2558 16.488 16.2645L10.98 22.2769C10.7707 22.5101 10.5164 22.6986 10.2323 22.8311C9.94831 22.9636 9.64043 23.0372 9.3272 23.0477C9.3056 23.0485 9.28321 23.0485 9.26001 23.0485ZM8.53521 21.4629C8.63402 21.5619 8.7518 21.6399 8.8815 21.6924C9.01119 21.7448 9.15013 21.7706 9.29001 21.7681C9.43206 21.7622 9.57146 21.7276 9.69981 21.6664C9.82815 21.6052 9.94279 21.5187 10.0368 21.4121L15.544 15.4001C15.6699 15.2595 15.8241 15.1471 15.9964 15.0702C16.1687 14.9932 16.3553 14.9534 16.544 14.9534C16.7327 14.9534 16.9193 14.9932 17.0916 15.0702C17.2639 15.1471 17.4181 15.2595 17.544 15.4001L20.82 18.9777C20.9095 19.0794 21.0204 19.16 21.1448 19.2137C21.4832 19.3493 21.6864 19.1417 21.6884 19.1393L30.0484 10.0113C30.1084 9.94578 30.1813 9.89349 30.2626 9.85772C30.3438 9.82195 30.4316 9.80348 30.5204 9.80348C30.6092 9.80348 30.697 9.82195 30.7783 9.85772C30.8595 9.89349 30.9324 9.94578 30.9924 10.0113L31.78 10.8693L32.7104 4.91526L27.7224 6.46086L28.8656 7.70846C28.9738 7.82648 29.0338 7.98076 29.0338 8.14086C29.0338 8.30095 28.9738 8.45523 28.8656 8.57326L22.752 15.2473C22.6952 15.3093 22.638 15.3761 22.578 15.4473L22.574 15.4521C22.22 15.8649 21.8444 16.0621 21.4572 16.0389C21.1276 16.0193 20.8328 15.8389 20.6264 15.5281C20.4393 15.2537 20.2312 14.9942 20.004 14.7521L17.484 12.0025C17.3488 11.8549 17.2188 11.7037 17.0928 11.5581L16.984 11.4325C16.7588 11.1729 16.5916 11.1717 16.5368 11.1717H16.534C16.2216 11.1717 15.8676 11.4917 15.768 11.6025C15.7624 11.6093 15.7644 11.6065 15.7588 11.6129L8.48641 19.5533C8.00641 20.0785 8.02841 20.9709 8.53561 21.4629H8.53521Z" fill="white"/>
</svg>
