<svg width="40" height="40" viewBox="0 0 40 40" fill="none" xmlns="http://www.w3.org/2000/svg">
<g clip-path="url(#clip0_692_1133)">
<path d="M5.92526 13.0364H13.0449C13.0225 13.1897 13.0051 13.3436 12.9929 13.498V13.4981C12.9819 13.6452 13.0013 13.793 13.0499 13.9323C13.0985 14.0715 13.1752 14.1993 13.2753 14.3077C13.3759 14.4155 13.4976 14.5016 13.6328 14.5604C13.768 14.6193 13.9139 14.6497 14.0614 14.6498H25.9384C26.2363 14.6498 26.5229 14.525 26.7246 14.3075C26.9263 14.09 27.0292 13.7949 27.0069 13.498C26.9947 13.3436 26.9774 13.1897 26.9549 13.0364H34.0746C34.3573 13.0364 34.6294 12.918 34.821 12.7115C34.916 12.6086 34.9889 12.4873 35.035 12.355C35.0812 12.2228 35.0996 12.0825 35.0892 11.9428C34.9063 9.50406 33.3119 7.46305 31.1492 6.60078C31.9849 5.92828 32.5213 4.89797 32.5213 3.74414C32.5214 1.72266 30.877 0.078125 28.8556 0.078125C26.8342 0.078125 25.1896 1.72266 25.1896 3.74406C25.1896 4.89758 25.7256 5.92773 26.5612 6.60023C25.6175 6.9756 24.7788 7.57415 24.1171 8.34461C23.6004 7.96833 23.0349 7.66404 22.4362 7.44008C23.4362 6.69477 24.0851 5.50336 24.0851 4.16313C24.085 1.91062 22.2525 0.078125 20 0.078125C17.7475 0.078125 15.915 1.91062 15.915 4.16313C15.915 5.50336 16.5639 6.69477 17.5639 7.44008C16.9652 7.66407 16.3997 7.96836 15.883 8.34461C15.2213 7.57415 14.3826 6.9756 13.4389 6.60023C14.2744 5.92773 14.8105 4.89758 14.8105 3.74406C14.8104 1.72266 13.1659 0.078125 11.1445 0.078125C9.12307 0.078125 7.47861 1.72266 7.47861 3.74406C7.47861 4.89781 8.01494 5.9282 8.85072 6.6007C6.68791 7.46297 5.09354 9.50399 4.91065 11.9426C4.90021 12.0822 4.91863 12.2225 4.96474 12.3548C5.01085 12.487 5.08368 12.6084 5.17869 12.7113C5.27416 12.8138 5.38971 12.8956 5.51814 12.9515C5.64658 13.0074 5.78516 13.0363 5.92526 13.0364ZM26.4396 3.74406C26.4396 2.41195 27.5234 1.32813 28.8556 1.32813C30.1878 1.32813 31.2715 2.41195 31.2715 3.74406C31.2715 5.07594 30.1881 6.15953 28.8563 6.16H28.8546C27.5228 6.15945 26.4396 5.07594 26.4396 3.74406ZM28.8546 7.41H28.8563C31.3739 7.41039 33.5063 9.31305 33.8179 11.7864H26.6578C26.3217 10.7947 25.7696 9.9032 25.0596 9.16555C26.0081 8.05836 27.3917 7.41023 28.8546 7.41ZM17.165 4.16313C17.165 2.59984 18.4367 1.32813 20 1.32813C21.5633 1.32813 22.835 2.59984 22.835 4.16313C22.835 5.72633 21.5633 6.99805 20 6.99805C18.4367 6.99805 17.165 5.72625 17.165 4.16313ZM25.743 13.3998H14.2571C14.5728 10.4955 17.0589 8.24805 20 8.24805C22.9411 8.24805 25.4271 10.4955 25.743 13.3998ZM8.72861 3.74406C8.72861 2.41195 9.81236 1.32813 11.1446 1.32813C12.4767 1.32813 13.5605 2.41195 13.5605 3.74406C13.5605 5.07586 12.4772 6.15945 11.1455 6.16H11.1438C9.8119 6.15961 8.72861 5.07594 8.72861 3.74406ZM11.1438 7.41H11.1455C12.6085 7.41023 13.9921 8.05836 14.9406 9.16555C14.2307 9.9032 13.6786 10.7947 13.3424 11.7864H6.18229C6.49385 9.31305 8.62619 7.41039 11.1438 7.41ZM39.4021 29.8202L36.7115 16.3145C36.6431 15.9711 36.4444 15.6744 36.1521 15.4791C35.8598 15.284 35.5097 15.2141 35.166 15.2825L31.7038 15.9723C31.3603 16.0407 31.0636 16.2394 30.8684 16.5317C30.6731 16.8241 30.6033 17.1743 30.6717 17.5177L30.7022 17.6706C28.6339 18.3539 26.121 18.545 22.9957 15.9666C21.5601 14.7823 19.6892 14.7435 18.34 15.8699L16.9435 17.036H9.33307C9.24213 16.5172 8.84322 16.0812 8.29643 15.9723L4.83416 15.2825C4.49072 15.214 4.14041 15.2839 3.84815 15.4791C3.5558 15.6744 3.35705 15.9711 3.28869 16.3145L0.59799 29.8202C0.529552 30.1637 0.599396 30.5138 0.79463 30.8063C0.989786 31.0986 1.28651 31.2973 1.62994 31.3657L5.09221 32.0555C5.26141 32.0895 5.43567 32.0896 5.60493 32.0559C5.77418 32.0221 5.93507 31.9552 6.0783 31.8589C6.37065 31.6637 6.5694 31.367 6.63776 31.0235L6.6483 30.9707L14.8397 39.162C15.3472 39.6695 16.0138 39.9232 16.6805 39.9231C17.3471 39.9231 18.0137 39.6694 18.5212 39.162C18.8638 38.8195 19.0988 38.3971 19.2092 37.9361L20.3305 39.0573C21.3456 40.0722 22.9971 40.072 24.0121 39.0572C24.3503 38.7197 24.5885 38.2952 24.7003 37.8306C25.185 38.2923 25.8197 38.5457 26.495 38.5456C27.1919 38.5456 27.8456 38.2756 28.3358 37.7855C28.8952 37.226 29.1462 36.4732 29.089 35.7402C29.1564 35.7454 29.2243 35.748 29.2927 35.748C29.9895 35.748 30.6432 35.478 31.1335 34.9877C31.8179 34.3034 32.0531 33.282 31.7746 32.3734L33.3229 30.8252L33.3624 31.0235C33.4307 31.367 33.6295 31.6637 33.9218 31.8589C34.065 31.9552 34.2259 32.0221 34.3952 32.0559C34.5644 32.0896 34.7386 32.0895 34.9078 32.0555L38.3701 31.3657C38.7135 31.2973 39.0103 31.0986 39.2055 30.8063C39.4006 30.5138 39.4705 30.1637 39.4021 29.8202ZM5.38424 30.8193C5.37735 30.8241 5.36958 30.8274 5.36139 30.8292C5.3532 30.8309 5.34474 30.8311 5.3365 30.8295L1.87432 30.1398C1.85369 30.1356 1.84111 30.1224 1.83416 30.112C1.82721 30.1016 1.81979 30.085 1.82393 30.0645L4.51447 16.5587C4.51621 16.5505 4.51955 16.5428 4.5243 16.5359C4.52904 16.529 4.5351 16.5232 4.54213 16.5187C4.54895 16.5138 4.5567 16.5104 4.5649 16.5086C4.5731 16.5069 4.58156 16.5068 4.58979 16.5084L8.05197 17.1982C8.06842 17.2019 8.08288 17.2118 8.09226 17.2258C8.10163 17.2398 8.10528 17.2569 8.10244 17.2735L5.4119 30.7793C5.41018 30.7875 5.40684 30.7952 5.4021 30.8021C5.39735 30.809 5.39128 30.8148 5.38424 30.8193ZM30.2495 34.1037C29.9953 34.3578 29.6554 34.4978 29.2924 34.4978C28.9295 34.4978 28.5897 34.3579 28.3356 34.1038L22.4453 28.2135C22.3874 28.1549 22.3185 28.1083 22.2425 28.0764C22.1665 28.0445 22.085 28.028 22.0026 28.0278C21.9202 28.0275 21.8386 28.0435 21.7624 28.075C21.6863 28.1064 21.617 28.1525 21.5588 28.2108C21.5005 28.269 21.4543 28.3383 21.4229 28.4144C21.3915 28.4906 21.3755 28.5722 21.3757 28.6546C21.3759 28.737 21.3925 28.8185 21.4244 28.8945C21.4562 28.9705 21.5028 29.0394 21.5614 29.0973L27.4517 34.9877C27.9794 35.5152 27.9794 36.3738 27.4518 36.9014C27.1977 37.1555 26.8578 37.2954 26.4948 37.2954C26.1318 37.2954 25.792 37.1555 25.538 36.9015L19.3139 30.6774C19.1965 30.5614 19.0379 30.4965 18.8728 30.497C18.7077 30.4975 18.5495 30.5633 18.4327 30.6801C18.316 30.7968 18.2502 30.955 18.2497 31.1201C18.2492 31.2852 18.314 31.4438 18.43 31.5613L23.1281 36.2593L23.1305 36.2617C23.6557 36.7895 23.6549 37.6462 23.1281 38.173C22.6004 38.7006 21.7419 38.7007 21.2143 38.1731L16.1827 33.1415C16.0652 33.0254 15.9066 32.9606 15.7415 32.9611C15.5764 32.9616 15.4182 33.0274 15.3015 33.1441C15.1847 33.2609 15.1189 33.4191 15.1184 33.5842C15.1179 33.7493 15.1827 33.9079 15.2988 34.0253L17.6375 36.3641L17.6379 36.3645C17.8917 36.6185 18.0316 36.9581 18.0316 37.3209C18.0316 37.6839 17.8916 38.0238 17.6374 38.2779C17.1099 38.8055 16.2514 38.8055 15.7238 38.2779L6.94197 29.4965L9.17526 18.286H15.4461L13.6973 19.7462C12.9208 20.3944 12.5874 21.2788 12.7824 22.1727L14.1906 28.6259C14.2085 28.7075 14.2424 28.7847 14.2906 28.8529C14.3387 28.9211 14.4 28.979 14.4708 29.0231C14.5417 29.0673 14.6207 29.0968 14.7031 29.1099C14.7856 29.123 14.8698 29.1195 14.9509 29.0995C16.6469 28.6816 17.7812 27.8638 18.4185 26.5993C18.9688 25.5075 19.0779 24.267 19.1935 22.9536C19.2082 22.787 19.2229 22.6195 19.2387 22.4516C19.2399 22.4432 19.2411 22.4365 19.2424 22.4312C19.4658 22.3542 20.496 22.5782 22.0445 23.9852L30.5229 32.5873C30.7517 33.0955 30.645 33.7082 30.2495 34.1037ZM31.0444 31.3356L22.9228 23.0957C22.915 23.0877 22.9069 23.08 22.8986 23.0724C21.2707 21.5893 19.7358 20.9137 18.7928 21.2655C18.3456 21.4323 18.0555 21.813 17.9967 22.3102C17.9961 22.3152 17.9956 22.3201 17.9951 22.3251C17.9788 22.4988 17.9635 22.672 17.9483 22.8441C17.7442 25.1637 17.5926 26.8883 15.2688 27.7038L14.0037 21.9063C13.8772 21.3267 14.2593 20.9054 14.4984 20.7058L19.141 16.8295C20.0139 16.1007 21.2433 16.1415 22.2001 16.9309C25.725 19.839 28.6775 19.6246 30.9479 18.9049L33.029 29.3512L31.0444 31.3356ZM38.1659 30.112C38.1614 30.1191 38.1555 30.1252 38.1486 30.13C38.1417 30.1347 38.1339 30.1381 38.1256 30.1398L34.6635 30.8295C34.6429 30.8336 34.6262 30.8263 34.6158 30.8193C34.6054 30.8123 34.5922 30.7998 34.5881 30.7792L31.8975 17.2734C31.8934 17.253 31.9008 17.2363 31.9078 17.2259C31.9147 17.2156 31.9273 17.2023 31.9479 17.1982L35.4101 16.5084C35.414 16.5077 35.4179 16.5073 35.4219 16.5073C35.437 16.5073 35.4496 16.5131 35.4578 16.5187C35.4682 16.5256 35.4814 16.5382 35.4855 16.5588L38.176 30.0646C38.1776 30.0728 38.1775 30.0812 38.1758 30.0894C38.174 30.0975 38.1707 30.1052 38.1659 30.112Z" fill="white"/>
</g>
<defs>
<clipPath id="clip0_692_1133">
<rect width="40" height="40" fill="white"/>
</clipPath>
</defs>
</svg>
