<svg width="40" height="40" viewBox="0 0 40 40" fill="none" xmlns="http://www.w3.org/2000/svg">
<g clip-path="url(#clip0_692_1244)">
<path d="M38.6355 8H1.36445C0.612109 8 0 8.61219 0 9.36445V30.9623C0 31.7146 0.612188 32.3264 1.36445 32.3264H38.6355C39.3879 32.3264 40 31.7146 40 30.9623V9.36445C40 8.61211 39.3878 8 38.6355 8ZM2.34617 11.3615L13.5578 18.8133L2.34617 28.5728V11.3615ZM20 20.2779L5.05734 10.3461H34.9427L20 20.2779ZM15.5841 20.1598L19.2447 22.5929C19.4683 22.7421 19.7312 22.8217 20 22.8218C20.2627 22.8218 20.5258 22.7452 20.7553 22.5929L24.4159 20.1598L35.6973 29.9803H4.30266L15.5841 20.1598ZM26.4423 18.813L37.6538 11.3612V28.5728L26.4423 18.813Z" fill="white" stroke="#439753"/>
</g>
<defs>
<clipPath id="clip0_692_1244">
<rect width="40" height="40" fill="white"/>
</clipPath>
</defs>
</svg>
