<svg width="30" height="30" viewBox="0 0 30 30" fill="none" xmlns="http://www.w3.org/2000/svg">
<g clip-path="url(#clip0_692_970)">
<path d="M28.9767 6H1.02334C0.459082 6 0 6.45914 0 7.02334V23.2218C0 23.786 0.459141 24.2448 1.02334 24.2448H28.9767C29.5409 24.2448 30 23.786 30 23.2218V7.02334C30 6.45908 29.5409 6 28.9767 6ZM1.75963 8.52111L10.1684 14.11L1.75963 21.4296V8.52111ZM15 15.2084L3.79301 7.75957H26.207L15 15.2084ZM11.6881 15.1198L14.4335 16.9447C14.6013 17.0566 14.7984 17.1163 15 17.1163C15.1971 17.1163 15.3943 17.0589 15.5665 16.9447L18.3119 15.1198L26.773 22.4852H3.22699L11.6881 15.1198ZM19.8317 14.1097L28.2404 8.52088V21.4296L19.8317 14.1097Z" fill="white" stroke="#69A562"/>
</g>
<defs>
<clipPath id="clip0_692_970">
<rect width="30" height="30" fill="white"/>
</clipPath>
</defs>
</svg>
