<svg width="30" height="30" viewBox="0 0 30 30" fill="none" xmlns="http://www.w3.org/2000/svg">
<g clip-path="url(#clip0_692_963)">
<path d="M14.5453 30L13.9104 29.318C13.819 29.2199 11.6499 26.8801 9.34574 23.568C6.21836 19.0721 4.44953 15.1298 4.08883 11.8501C4.02906 11.3761 4 10.9492 4 10.5452C4 4.7308 8.73074 0 14.5455 0C20.3584 0 25.0892 4.72986 25.091 10.5434C25.091 10.9362 25.0626 11.3576 25.004 11.8313C24.6513 15.1121 22.8848 19.0583 19.7532 23.5602C17.4461 26.8764 15.2717 29.22 15.1804 29.3182L14.5453 30ZM14.5455 1.73537C9.6877 1.73537 5.73537 5.6877 5.73537 10.5455C5.73537 10.8778 5.76033 11.2358 5.8116 11.6395L5.81318 11.6542C6.47172 17.6735 12.545 25.114 14.5457 27.4209C16.5491 25.1125 22.636 17.66 23.2792 11.6393L23.281 11.6246C23.3318 11.2141 23.3556 10.8705 23.3556 10.5437C23.354 5.68705 19.4017 1.73537 14.5455 1.73537H14.5455ZM14.5455 17.6383C10.6346 17.6383 7.4527 14.4564 7.4527 10.5455C7.4527 6.63457 10.6346 3.4527 14.5455 3.4527C18.4555 3.4527 21.6365 6.63457 21.6365 10.5455C21.6365 14.4564 18.4555 17.6383 14.5455 17.6383H14.5455ZM14.5455 5.1883C11.5915 5.1883 9.1883 7.59152 9.1883 10.5455C9.1883 13.4995 11.5916 15.9028 14.5455 15.9028C17.4985 15.9028 19.9011 13.4995 19.9011 10.5455C19.9011 7.59152 17.4985 5.1883 14.5455 5.1883Z" fill="white" stroke="#49854D"/>
</g>
<defs>
<clipPath id="clip0_692_963">
<rect width="30" height="30" fill="white"/>
</clipPath>
</defs>
</svg>
