<svg width="40" height="40" fill="none" xmlns="http://www.w3.org/2000/svg"><path d="M20.031 40c6.488 0 11.766-5.278 11.766-11.766V11.766C31.797 5.278 26.519 0 20.03 0S8.265 5.278 8.265 11.766v16.468C8.265 34.722 13.543 40 20.031 40zm-9.366-28.234c0-5.164 4.202-9.366 9.366-9.366s9.366 4.202 9.366 9.366v16.468c0 5.164-4.202 9.366-9.366 9.366s-9.366-4.202-9.366-9.366V11.766z" fill="#fff"/><path d="M20.03 32.043a1.2 1.2 0 001.2-1.2V25.32a1.2 1.2 0 00-2.4 0v5.523a1.2 1.2 0 001.2 1.2z" fill="#fff"/></svg>