<svg width="32" height="32" viewBox="0 0 32 32" fill="none" xmlns="http://www.w3.org/2000/svg">
<path d="M23.4339 18.4812C22.6359 18.4819 21.85 18.6767 21.144 19.0489C20.4381 19.4211 19.8333 19.9595 19.3819 20.6176L12.5117 17.5155C12.9996 16.3371 13.0015 15.0136 12.5169 13.8339L19.3777 10.7159C20.0467 11.6836 21.0404 12.3794 22.1785 12.6771C23.3166 12.9748 24.5238 12.8548 25.581 12.3388C26.6381 11.8227 27.4754 10.9449 27.9408 9.86444C28.4061 8.784 28.4689 7.57254 28.1176 6.44981C27.7663 5.32708 27.0242 4.36744 26.026 3.74497C25.0277 3.1225 23.8394 2.87843 22.6767 3.05702C21.5139 3.23562 20.4536 3.82505 19.6882 4.7184C18.9228 5.61176 18.5029 6.74986 18.5048 7.92627C18.5092 8.20471 18.5375 8.48226 18.5892 8.75589L11.2957 12.0701C10.5952 11.4139 9.71829 10.9765 8.77264 10.8117C7.82698 10.647 6.8538 10.7621 5.97265 11.1428C5.0915 11.5236 4.34077 12.1535 3.81267 12.955C3.28457 13.7566 3.00212 14.695 3.00001 15.6549C2.9979 16.6148 3.27623 17.5544 3.8008 18.3583C4.32537 19.1621 5.07333 19.7953 5.9528 20.1799C6.83226 20.5646 7.80493 20.6839 8.7513 20.5233C9.69767 20.3628 10.5765 19.9292 11.2799 19.276L18.5924 22.5776C18.5416 22.851 18.5137 23.1282 18.509 23.4062C18.5088 24.3806 18.7975 25.3331 19.3387 26.1433C19.8799 26.9536 20.6493 27.5851 21.5494 27.9581C22.4496 28.331 23.4401 28.4287 24.3958 28.2386C25.3514 28.0486 26.2292 27.5794 26.9182 26.8905C27.6072 26.2015 28.0764 25.3237 28.2664 24.368C28.4564 23.4124 28.3588 22.4218 27.9858 21.5217C27.6129 20.6215 26.9813 19.8522 26.1711 19.311C25.3608 18.7698 24.4083 18.481 23.4339 18.4812ZM23.4339 5.11126C23.9907 5.11105 24.5351 5.27597 24.9982 5.58516C25.4612 5.89435 25.8222 6.33392 26.0354 6.84828C26.2487 7.36263 26.3045 7.92867 26.1961 8.4748C26.0876 9.02093 25.8195 9.52261 25.4259 9.91641C25.0322 10.3102 24.5307 10.5784 23.9846 10.6871C23.4385 10.7958 22.8724 10.7401 22.358 10.5271C21.8435 10.3141 21.4038 9.95326 21.0945 9.49031C20.7851 9.02736 20.62 8.48307 20.62 7.92627C20.6205 7.18003 20.9172 6.46451 21.4447 5.93674C21.9723 5.40898 22.6877 5.11209 23.4339 5.11126ZM7.95402 18.4812C7.39722 18.4814 6.85286 18.3165 6.3898 18.0073C5.92673 17.6981 5.56576 17.2586 5.35254 16.7442C5.13932 16.2299 5.08342 15.6638 5.19192 15.1177C5.30042 14.5716 5.56844 14.0699 5.96208 13.6761C6.35572 13.2823 6.85731 13.0141 7.4034 12.9054C7.94948 12.7967 8.51554 12.8524 9.02998 13.0654C9.54442 13.2784 9.98413 13.6392 10.2935 14.1022C10.6029 14.5651 10.768 15.1094 10.768 15.6662C10.7671 16.4124 10.4704 17.1277 9.94293 17.6554C9.41542 18.1831 8.70017 18.4801 7.95402 18.4812ZM23.4339 26.2212C22.8772 26.2212 22.3329 26.0561 21.87 25.7468C21.4071 25.4375 21.0463 24.9978 20.8332 24.4834C20.6202 23.9691 20.5644 23.4031 20.673 22.857C20.7816 22.3109 21.0497 21.8094 21.4434 21.4157C21.8371 21.022 22.3387 20.7539 22.8848 20.6453C23.4308 20.5366 23.9968 20.5924 24.5112 20.8055C25.0256 21.0185 25.4652 21.3793 25.7745 21.8423C26.0839 22.3052 26.249 22.8494 26.249 23.4062C26.2484 24.1526 25.9516 24.8683 25.4238 25.3961C24.896 25.9239 24.1804 26.2206 23.4339 26.2212Z" fill="white"/>
</svg>
