<svg width="56" height="57" viewBox="0 0 56 57" fill="none" xmlns="http://www.w3.org/2000/svg">
<circle cx="28" cy="28.5" r="27" stroke="white" stroke-width="2"/>
<g clip-path="url(#clip0_902_2025)">
<path d="M28 28.5C29.3845 28.5 30.7378 28.0895 31.889 27.3203C33.0401 26.5511 33.9373 25.4579 34.4672 24.1788C34.997 22.8997 35.1356 21.4922 34.8655 20.1344C34.5954 18.7765 33.9287 17.5292 32.9497 16.5503C31.9708 15.5713 30.7235 14.9046 29.3656 14.6345C28.0078 14.3644 26.6003 14.503 25.3212 15.0328C24.0421 15.5627 22.9489 16.4599 22.1797 17.611C21.4105 18.7622 21 20.1155 21 21.5C21.0019 23.356 21.7399 25.1354 23.0523 26.4477C24.3647 27.7601 26.1441 28.4982 28 28.5ZM28 16.8333C28.923 16.8333 29.8252 17.107 30.5927 17.6198C31.3601 18.1326 31.9582 18.8614 32.3114 19.7141C32.6646 20.5669 32.7571 21.5052 32.577 22.4104C32.3969 23.3157 31.9525 24.1472 31.2998 24.7998C30.6472 25.4525 29.8157 25.8969 28.9104 26.077C28.0052 26.2571 27.0669 26.1647 26.2141 25.8114C25.3614 25.4582 24.6326 24.8601 24.1198 24.0927C23.607 23.3252 23.3333 22.423 23.3333 21.5C23.3333 20.2623 23.825 19.0753 24.7002 18.2002C25.5753 17.325 26.7623 16.8333 28 16.8333ZM28 30.8333C25.2162 30.8364 22.5473 31.9437 20.5788 33.9121C18.6103 35.8806 17.5031 38.5495 17.5 41.3333C17.5 41.6428 17.6229 41.9395 17.8417 42.1583C18.0605 42.3771 18.3572 42.5 18.6667 42.5C18.9761 42.5 19.2728 42.3771 19.4916 42.1583C19.7104 41.9395 19.8333 41.6428 19.8333 41.3333C19.8333 39.1674 20.6937 37.0902 22.2253 35.5586C23.7568 34.0271 25.8341 33.1667 28 33.1667C30.1659 33.1667 32.2432 34.0271 33.7747 35.5586C35.3063 37.0902 36.1667 39.1674 36.1667 41.3333C36.1667 41.6428 36.2896 41.9395 36.5084 42.1583C36.7272 42.3771 37.0239 42.5 37.3333 42.5C37.6428 42.5 37.9395 42.3771 38.1583 42.1583C38.3771 41.9395 38.5 41.6428 38.5 41.3333C38.4969 38.5495 37.3897 35.8806 35.4212 33.9121C33.4527 31.9437 30.7838 30.8364 28 30.8333Z" fill="white"/>
</g>
<defs>
<clipPath id="clip0_902_2025">
<rect width="28" height="28" fill="white" transform="translate(14 14.5)"/>
</clipPath>
</defs>
</svg>
